<svg preserveAspectRatio="none" width="100%" height="100%" overflow="visible" style="display: block;" viewBox="0 0 22 19" fill="none" xmlns="http://www.w3.org/2000/svg">
<path id="IconShape" d="M19 0V4H22V16L21.9949 16.1763C21.907 17.6928 20.6928 18.907 19.1763 18.9949L19 19H2.5C1.11929 19 0 17.8807 0 16.5V0H19ZM17 2H2V16.5C2 16.7455 2.17688 16.9496 2.41012 16.9919L2.5 17L18.999 16.999L18.9765 16.9828C17.8279 16.1093 17.0712 14.7513 17.0048 13.2199L17 13V2ZM20 6H19V13C19 13.8885 19.3863 14.6869 20.0001 15.2362L20 6ZM15 12V14H4V12H15ZM15 8V10H12V8H15ZM10 4V10H4V4H10ZM15 4V6H12V4H15Z" fill="var(--fill-0, #B6BEC6)"/>
</svg>
