<svg preserveAspectRatio="none" width="100%" height="100%" overflow="visible" style="display: block;" viewBox="0 0 11 14" fill="none" xmlns="http://www.w3.org/2000/svg">
<path id="IconShape" d="M10.667 1.05371L9.57227 1.71191C9.75342 1.99118 9.81225 2.32857 9.73535 2.64941C9.6584 2.97018 9.45202 3.2483 9.16211 3.42285L8.83105 3.62207C9.83525 4.88381 10.1023 6.55165 9.53906 8.0459C8.97577 9.54012 7.65982 10.655 6.04883 11.0029V12.0908H10.5645V13.333H0.244141V12.0908H4.75879V11.1084C3.53924 11.0532 2.38701 10.555 1.53418 9.71387L2.45605 8.84473C3.78436 10.1566 5.95149 10.2261 7.36719 9.00195C8.7827 7.77775 8.94293 5.69606 7.73047 4.28418L2.05078 7.70117L0 4.54199L7.11133 0.262695C7.40148 0.0881965 7.75163 0.0323198 8.08496 0.106445C8.41827 0.180617 8.70743 0.378867 8.88867 0.658203L9.9834 0L10.667 1.05371ZM2 4.81445L2.68066 5.86621L8.66699 2.25098L7.98633 1.2002L2 4.81445Z" fill="var(--fill-0, #B0B8D1)"/>
</svg>
