<svg preserveAspectRatio="none" width="100%" height="100%" overflow="visible" style="display: block;" viewBox="0 0 24 23" fill="none" xmlns="http://www.w3.org/2000/svg">
<path id="Subtract" fill-rule="evenodd" clip-rule="evenodd" d="M21.3666 10C22.6578 10 23.6486 8.82777 23.1777 7.62552C21.4293 3.1614 17.0838 0 12 0C5.37258 0 0 5.37258 0 12C0 16.6166 2.60703 20.6244 6.42921 22.6313C7.66742 23.2815 9 22.2596 9 20.8611V20.8611C9 19.9891 8.45508 19.2266 7.7189 18.7593C5.48356 17.3406 4 14.8435 4 12C4 7.58172 7.58172 4 12 4C15.1568 4 17.8866 5.82847 19.188 8.48412C19.6073 9.33963 20.4139 10 21.3666 10V10Z" fill="var(--fill-0, #CBD1D7)"/>
</svg>
