<svg preserveAspectRatio="none" width="100%" height="100%" overflow="visible" style="display: block;" viewBox="0 0 16 16" fill="none" xmlns="http://www.w3.org/2000/svg">
<path id="Subtract" fill-rule="evenodd" clip-rule="evenodd" d="M4.37222 15.8557C5.23635 16.3258 6.17676 15.6099 6.17676 14.6262V14.6262C6.17676 14.0191 5.79941 13.4875 5.29063 13.1564C3.7603 12.1603 2.74512 10.4106 2.74512 8.4186C2.74512 5.3189 5.20314 2.8061 8.23527 2.8061C10.4073 2.8061 12.2847 4.09547 13.175 5.96634C13.4572 6.55926 14.0128 7.01573 14.6694 7.01573V7.01573C15.5534 7.01573 16.233 6.2153 15.9208 5.38829C14.7307 2.23612 11.7384 0 8.23524 0C3.68704 0 0 3.7692 0 8.41875C0 11.6411 1.77098 14.4407 4.37222 15.8557Z" fill="var(--fill-0, #CBD1D7)"/>
</svg>
