<svg preserveAspectRatio="none" width="100%" height="100%" overflow="visible" style="display: block;" viewBox="0 0 342 65" fill="none" xmlns="http://www.w3.org/2000/svg">
<g id="Spark">
<path id="Fill" d="M29.2489 19.2735L0.999978 22.2479V65H341V1L302.706 3.46154H289.942L262.092 10.0256L234.242 8.38462L208.521 20.265L181.359 18.2821L156.369 17.6447L131.38 22.2479L105.304 25.6154H80.3143L55.3249 20.265L29.2489 19.2735Z" fill="url(#paint0_linear_453_92847)"/>
<path id="Line" d="M1 23.9744L31.4478 19.0513L56.8209 20.6923L82.194 25.6154H107.567L132.94 23.9744L158.313 17.4103H183.687L209.06 20.6923L234.597 8.38462L262.727 10.8462L287.187 2.64103L310.424 3.46154L341 1" stroke="var(--stroke-0, #3E74FE)" stroke-width="2"/>
</g>
<defs>
<linearGradient id="paint0_linear_453_92847" x1="0.999967" y1="10.8462" x2="0.999967" y2="58.4359" gradientUnits="userSpaceOnUse">
<stop stop-color="#4F8DF9" stop-opacity="0.16"/>
<stop offset="1" stop-color="#4F8DF9" stop-opacity="0.02"/>
</linearGradient>
</defs>
</svg>
