<svg preserveAspectRatio="none" width="100%" height="100%" overflow="visible" style="display: block;" viewBox="0 0 1256 123" fill="none" xmlns="http://www.w3.org/2000/svg">
<path id="Graph" d="M1 53.5L14.8009 76L28.9155 65L43.03 48.5L57.1446 23.5L71.5728 88L85.6873 85L99.8019 67L113.603 48.5L127.717 61H142.146L155.946 74L170.061 51.5L184.176 38L197.976 109.5L212.405 61L226.519 46L240.634 61L254.435 69.5L268.863 85L282.664 79.5L297.092 74L311.207 61L325.008 38L339.122 16.5L352.923 2L367.351 7L381.152 20.5L395.58 76.5L409.381 89L423.809 61L437.924 43L451.725 49L466.153 71.5L480.268 15L494.382 97L508.497 56.5L522.611 43L536.099 40L550.527 65L564.641 89L578.756 99.5L592.87 93L606.671 81.5L620.786 65L635.214 44.5L648.701 53L663.443 122.5L677.871 21L691.359 97L705.473 60L719.588 78L733.389 60L747.817 71L761.618 50.5L776.046 46.5L790.161 78L803.962 55.5L818.39 81.5L832.191 85.5H846.305L860.42 72L874.534 98L888.335 115L903.077 50.5L916.564 37.5L930.679 35L944.793 46.5L958.908 56L973.023 64.5L987.137 56L1001.57 90L1015.05 75.5L1029.17 70L1043.91 90L1058.02 100L1072.14 90L1085.94 80L1100.05 70L1113.85 60.5L1128.28 53L1142.4 43.5L1156.51 75.5L1170.63 90L1184.43 96H1198.54L1212.97 81L1227.08 67.5L1240.89 57.5L1255 64" stroke="var(--stroke-0, #C343FF)" stroke-width="2" stroke-linecap="round"/>
</svg>
