<svg preserveAspectRatio="none" width="100%" height="100%" overflow="visible" style="display: block;" viewBox="0 0 12 12" fill="none" xmlns="http://www.w3.org/2000/svg">
<g id="Vector">
<path d="M6 0C2.688 0 0 2.6424 0 5.898C0 9.1542 2.688 11.796 6 11.796C9.312 11.796 12 9.1542 12 5.898C12 2.6424 9.312 0 6 0ZM6 10.617C3.354 10.617 1.2 8.499 1.2 5.8992C1.2 3.2976 3.354 1.1802 6 1.1802C8.646 1.1802 10.8 3.2982 10.8 5.8992C10.8 8.5002 8.646 10.617 6 10.617Z" fill="var(--fill-0, #B6BEC6)"/>
<path d="M5.33333 5.33333H6.66667V9.33333H5.33333V5.33333Z" fill="var(--fill-0, #B6BEC6)"/>
<path d="M5.33333 2.66667H6.66667V4H5.33333V2.66667Z" fill="var(--fill-0, #B6BEC6)"/>
</g>
</svg>
