<svg preserveAspectRatio="none" width="100%" height="100%" overflow="visible" style="display: block;" viewBox="0 0 1257 76" fill="none" xmlns="http://www.w3.org/2000/svg">
<path id="Graph" d="M1 4.5L15.4325 2L29.865 19L43.3562 13.5L57.7887 31L71.5937 22.5L86.0262 35.5L99.8312 31L113.95 34L128.382 50L142.501 45L156.306 50L170.111 58.5L184.544 60.5L198.976 43L212.781 65.5L226.9 53L240.705 50L254.824 54.5L269.256 69L283.375 67L297.18 58.5L311.299 57L325.417 69L340.164 58.5L353.655 67H368.087L382.206 54.5L395.697 46.5L410.13 40L424.249 65H438.367L452.486 60.5L466.291 67L480.096 52L494.215 67L508.647 47.5L522.452 60.5L536.571 69.5L550.69 60.5L564.809 71.5L579.241 60.5L593.046 67L607.479 74.5H621.284H635.716H649.835L664.267 71.5L677.759 73L691.877 69.5L706.31 74.5H719.801H734.547H747.725H762.471L776.904 73H790.709L804.827 67L819.574 71.5L832.751 69.5H847.184L860.989 65.5L875.107 71.5L889.226 63.5L903.345 69.5L917.464 59L931.582 69.5L945.701 46L959.506 69.5L973.311 61.5H987.744L1001.55 55L1015.67 61.5L1030.41 52L1044.22 61.5L1058.65 55L1072.46 61.5L1086.26 53.5L1101.01 60L1115.13 48.5L1128.62 61.5L1142.74 44L1157.17 46L1171.29 37.5L1185.09 40L1199.21 32.5L1213.33 38.5L1227.45 22.5H1241.57L1256 24.5" stroke="var(--stroke-0, #FF7A1A)" stroke-width="2" stroke-linecap="round"/>
</svg>
