<svg preserveAspectRatio="none" width="100%" height="100%" overflow="visible" style="display: block;" viewBox="0 0 738 47" fill="none" xmlns="http://www.w3.org/2000/svg">
<path id="Graph" d="M1 19.4232L9.10005 27.0352L17.3842 23.3138L25.6683 17.7316L33.9525 9.27375L42.4207 31.095L50.7049 30.0801L58.989 23.9904L67.089 17.7316L75.3732 21.9605H83.8414L91.9415 26.3586L100.226 18.7465L108.51 14.1793L116.61 38.3688L125.078 21.9605L133.362 16.8858L141.646 21.9605L149.746 24.8362L158.215 30.0801L166.315 28.2193L174.783 26.3586L183.067 21.9605L191.167 14.1793L199.451 6.90555L207.551 2L216.02 3.69157L224.12 8.25881L232.588 27.2044L240.688 31.4333L249.156 21.9605L257.44 15.8709L265.54 17.9008L274.009 25.5128L282.293 6.39808L290.577 34.1398L298.861 20.4381L307.145 15.8709L315.061 14.8559L323.529 23.3138L331.813 31.4333L340.098 34.9856L348.382 32.7866L356.482 28.896L364.766 23.3138L373.234 16.3783L381.15 19.254L389.802 42.7668L398.271 8.42797L406.187 34.1398L414.471 21.6222L422.755 27.7119L430.855 21.6222L439.323 25.3437L447.423 18.4082L455.891 17.055L464.176 27.7119L472.276 20.0998L480.744 28.896L488.844 30.2492H497.128L505.412 25.682L513.696 34.4782L521.796 40.2295L530.449 18.4082L538.365 14.0102L546.649 13.1644L554.933 17.055L563.217 20.269L571.501 23.1446L579.785 20.269L588.254 31.7716L596.17 26.8661L604.454 25.0054L613.106 31.7716L621.39 35.1548L629.674 31.7716L637.774 28.3885L646.059 25.0054L654.159 21.7914L662.627 19.254L670.911 16.04L679.195 26.8661L687.479 31.7716L695.579 33.8015H703.863L712.332 28.7268L720.616 24.1596L728.716 20.7764L737 22.9755" stroke="var(--stroke-0, #E44675)" stroke-width="2" stroke-linecap="round"/>
</svg>
