<svg preserveAspectRatio="none" width="100%" height="100%" overflow="visible" style="display: block;" viewBox="0 0 15 13" fill="none" xmlns="http://www.w3.org/2000/svg">
<path id="IconShape" d="M12.6667 0V2.66667H14.6667V10.6667L14.6633 10.7842C14.6047 11.7952 13.7952 12.6047 12.7842 12.6633L12.6667 12.6667H1.66667C0.746192 12.6667 0 11.9205 0 11V0H12.6667ZM11.3333 1.33333H1.33333V11C1.33333 11.1636 1.45125 11.2997 1.60675 11.328L1.66667 11.3333L12.666 11.3327L12.651 11.3219C11.8853 10.7396 11.3808 9.8342 11.3365 8.81328L11.3333 8.66667V1.33333ZM13.3333 4H12.6667V8.66667C12.6667 9.25903 12.9242 9.79125 13.3334 10.1575L13.3333 4ZM10 8V9.33333H2.66667V8H10ZM10 5.33333V6.66667H8V5.33333H10ZM6.66667 2.66667V6.66667H2.66667V2.66667H6.66667ZM10 2.66667V4H8V2.66667H10Z" fill="var(--fill-0, #6B7C8C)"/>
</svg>
