<svg preserveAspectRatio="none" width="100%" height="100%" overflow="visible" style="display: block;" viewBox="0 0 738 11" fill="none" xmlns="http://www.w3.org/2000/svg">
<path id="Graph" d="M1 4.59526L9.10005 6.166L17.3842 5.39808L25.6683 4.2462L33.9525 2.50093L42.4207 7.00373L50.7049 6.7943L58.989 5.5377L67.089 4.2462L75.3732 5.11884H83.8414L91.9415 6.02638L100.226 4.45564L108.51 3.51319L116.61 8.50466L125.078 5.11884L133.362 4.07168L141.646 5.11884L149.746 5.71223L158.215 6.7943L166.315 6.41034L174.783 6.02638L183.067 5.11884L191.167 3.51319L199.451 2.01226L207.551 1L216.02 1.34905L224.12 2.2915L232.588 6.20091L240.688 7.07354L249.156 5.11884L257.44 3.86224L265.54 4.28111L274.009 5.85185L282.293 1.90754L290.577 7.63203L298.861 4.80469L307.145 3.86224L315.061 3.65281L323.529 5.39808L331.813 7.07354L340.098 7.80656L348.382 7.35279L356.482 6.54996L364.766 5.39808L373.234 3.96696L381.15 4.56035L389.802 9.41221L398.271 2.32641L406.187 7.63203L414.471 5.04903L422.755 6.30562L430.855 5.04903L439.323 5.81695L447.423 4.38583L455.891 4.10658L464.176 6.30562L472.276 4.73488L480.744 6.54996L488.844 6.8292H497.128L505.412 5.88676L513.696 7.70184L521.796 8.88862L530.449 4.38583L538.365 3.47828L546.649 3.30376L554.933 4.10658L563.217 4.76978L571.501 5.36318L579.785 4.76978L588.254 7.14335L596.17 6.1311L604.454 5.74714L613.106 7.14335L621.39 7.84146L629.674 7.14335L637.774 6.44524L646.059 5.74714L654.159 5.08393L662.627 4.56035L670.911 3.89715L679.195 6.1311L687.479 7.14335L695.579 7.56222H703.863L712.332 6.51506L720.616 5.57261L728.716 4.8745L737 5.32827" stroke="var(--stroke-0, #C343FF)" stroke-width="2" stroke-linecap="round"/>
</svg>
