<svg preserveAspectRatio="none" width="100%" height="100%" overflow="visible" style="display: block;" viewBox="0 0 20 12" fill="none" xmlns="http://www.w3.org/2000/svg">
<path id="Vector" d="M3.14312 0C3.7545 0 4.25215 0.00486361 5.33355 0.0195312C6.31425 0.0328648 6.76783 0.0377291 7.30719 0.0390625C7.87719 0.0427261 8.44725 0.0500761 9.01715 0.0615234L9.24078 0.0664062L9.83648 0.078125C10.5858 0.0647914 11.6005 0.0573545 12.6939 0.0546875C13.2426 0.0533541 13.706 0.047823 14.6607 0.0351562C15.7608 0.0204886 16.2564 0.015625 16.8658 0.015625H17.1119C17.1971 0.0156291 17.285 0.0178072 17.4752 0.0224609C17.7485 0.029128 17.8811 0.0322266 18.0191 0.0322266C18.1391 0.0322252 18.2252 0.0303664 18.2779 0.0263672C19.3325 -0.0615679 19.9729 0.467399 19.9976 1.4834C20.0218 2.58053 19.9135 3.67659 19.6763 4.74805C19.3836 6.04147 18.968 7.06561 18.398 7.875C17.8213 8.69236 17.0484 9.26412 15.815 9.9248C15.2684 10.2181 14.6857 10.4483 13.9185 10.6963C13.7212 10.7596 13.5641 10.8084 13.2154 10.915L12.8511 11.0283C12.6679 11.085 12.5136 11.1337 12.3697 11.1816C12.0764 11.279 11.8693 11.364 11.3961 11.5732L11.3345 11.6006L11.2076 11.6611C10.6945 11.9063 10.43 12.0009 10.0396 12.001C9.88302 12.001 9.72918 11.9792 9.58258 11.9346C9.27922 11.8432 9.0087 11.7365 8.57867 11.5498L8.47418 11.5039C8.05082 11.3192 7.86009 11.2414 7.63141 11.166C7.35153 11.0742 7.07067 10.9854 6.78863 10.9004C5.48188 10.499 4.89081 10.2872 4.18609 9.90918C2.95271 9.24848 2.17881 8.67742 1.60211 7.85938C1.03211 7.05 0.615797 6.02543 0.323789 4.7334C0.0869307 3.6619 -0.0208385 2.56584 0.00347652 1.46875C0.0268146 0.45202 0.667539 -0.0769064 1.72027 0.00976562C1.77496 0.014412 1.86161 0.0166016 1.98004 0.0166016C2.13782 0.0169617 2.29598 0.0150147 2.45367 0.00976562C2.72006 0.00310524 2.80023 1.57666e-08 2.8902 0H3.14312ZM2.09137 1.5791C1.80978 1.55586 1.84897 1.52361 1.84332 1.75781C1.82134 2.67877 1.91853 3.67005 2.11578 4.54199C2.35886 5.61604 2.69297 6.4376 3.12945 7.05762C3.53341 7.63182 4.12875 8.07126 5.13141 8.6084C5.69792 8.91171 6.20151 9.09267 7.35406 9.44629C7.75902 9.5706 7.94684 9.62912 8.17535 9.70508C8.43983 9.79303 8.6436 9.87634 9.0777 10.0654L9.17535 10.1084C9.53847 10.2655 9.75583 10.3505 9.98199 10.4189C9.99969 10.4241 10.0183 10.4269 10.0367 10.4268C10.1403 10.4267 10.2746 10.3787 10.5796 10.2324L10.7134 10.1689L10.7925 10.1328C11.2728 9.92062 11.4972 9.82837 11.8238 9.71973C11.9683 9.67199 12.1207 9.62328 12.3004 9.56738L12.649 9.45996C12.9713 9.3607 13.1157 9.31693 13.2935 9.25977C13.9492 9.04809 14.4328 8.85671 14.8687 8.62305C15.872 8.08528 16.4667 7.64682 16.8707 7.07324C17.3072 6.45322 17.6406 5.6314 17.8843 4.55664C18.0816 3.68466 18.1788 2.69282 18.1568 1.77246C18.1506 1.53784 18.19 1.56989 17.9068 1.59375C17.7902 1.6019 17.6731 1.60553 17.5562 1.60449C17.4118 1.60449 17.2796 1.60198 17.024 1.5957C16.9153 1.59245 16.8066 1.5898 16.6978 1.58887H16.4683C15.903 1.58887 15.4399 1.59263 14.4312 1.60645C13.5052 1.61901 13.0649 1.62409 12.5416 1.62598C11.5172 1.62786 10.5664 1.6349 9.84527 1.64746L9.25738 1.63574L9.04742 1.63184C8.51769 1.62111 7.98741 1.61387 7.45758 1.61035C6.94377 1.6091 6.51343 1.60471 5.61285 1.59277C4.57272 1.57896 4.10674 1.57324 3.53961 1.57324L3.30328 1.57422C3.23422 1.57422 3.16113 1.57569 2.97418 1.58008L2.92145 1.58203C2.76241 1.58584 2.60298 1.58821 2.44391 1.58984C2.29941 1.58984 2.18497 1.58664 2.09137 1.5791ZM14.149 3.18555C14.7385 3.18562 15.3054 3.32887 15.8394 3.57324C16.1526 3.71502 16.4496 3.89148 16.7232 4.09961L17.1002 4.39062L16.8716 4.80273C16.718 5.07967 16.5331 5.33824 16.3209 5.57324C15.9557 5.97563 15.5397 6.26353 15.0601 6.37695C14.5702 6.49197 14.1268 6.54782 13.6724 6.54785C12.9981 6.54783 12.2955 6.42126 11.5308 6.16602L11.0504 6.00586L11.1548 5.52246C11.2304 5.17265 11.3837 4.78206 11.647 4.4082C12.0437 3.84441 12.619 3.43733 13.3814 3.26953C13.6321 3.21405 13.8909 3.18555 14.149 3.18555ZM5.95172 3.18555C6.20966 3.18558 6.46781 3.21465 6.71832 3.26953C7.48068 3.43723 8.0554 3.84453 8.4527 4.4082C8.68925 4.74269 8.85694 5.12136 8.94488 5.52148L9.04937 6.00488L8.56891 6.16504C7.80418 6.4203 7.10161 6.54688 6.4273 6.54688C5.95985 6.54511 5.49365 6.48815 5.03961 6.37695C4.56013 6.2635 4.14396 5.97553 3.77887 5.57324C3.56672 5.33831 3.38163 5.07954 3.22809 4.80273L2.99957 4.39062L3.3775 4.09961C3.65106 3.89151 3.94719 3.71402 4.26031 3.57227C4.79377 3.32843 5.36275 3.1856 5.95172 3.18555ZM5.95172 4.30469C5.54715 4.30474 5.14122 4.40645 4.75152 4.58496C4.67151 4.62155 4.59641 4.65995 4.52496 4.69824C4.75777 4.99216 5.03543 5.22424 5.31109 5.28906C5.71447 5.38404 6.06685 5.42769 6.4273 5.42773L6.71734 5.41797C7.01156 5.39847 7.31848 5.34979 7.64215 5.26953C7.60098 5.19022 7.55392 5.11313 7.5025 5.04004C7.26212 4.69911 6.9284 4.46224 6.46441 4.36035C6.29617 4.32348 6.12395 4.30468 5.95172 4.30469ZM14.149 4.30469C13.9762 4.30469 13.8033 4.32319 13.6363 4.36035C13.1717 4.46285 12.8376 4.69903 12.5972 5.04004C12.5458 5.11315 12.4997 5.1902 12.4586 5.26953C12.8551 5.37161 13.263 5.42459 13.6724 5.42773C14.0329 5.4277 14.3853 5.38401 14.7886 5.28906C15.0639 5.22426 15.3428 4.99176 15.5757 4.69824C15.5016 4.65818 15.4259 4.61995 15.3492 4.58496C14.9588 4.40639 14.5531 4.30476 14.149 4.30469Z" fill="var(--fill-0, #BB3F3F)"/>
</svg>
