<svg preserveAspectRatio="none" width="100%" height="100%" overflow="visible" style="display: block;" viewBox="0 0 15 14" fill="none" xmlns="http://www.w3.org/2000/svg">
<path id="Vector" fill-rule="evenodd" clip-rule="evenodd" d="M2 0H12.6667C13.7712 0 14.6667 0.895431 14.6667 2V11.3333C14.6667 12.4379 13.7712 13.3333 12.6667 13.3333H2C0.89543 13.3333 0 12.4379 0 11.3333V2C0 0.895431 0.89543 0 2 0ZM2 1.33333C1.63181 1.33333 1.33333 1.63181 1.33333 2V2.66667H13.3333V2C13.3333 1.63181 13.0349 1.33333 12.6667 1.33333H2ZM13.3333 4H1.33333V11.3333C1.33333 11.7015 1.63181 12 2 12H12.6667C13.0349 12 13.3333 11.7015 13.3333 11.3333V4ZM6.66667 5.33333V10.6667H5.33333V5.33333H6.66667ZM4 10.6667V7.33333H2.66667V10.6667H4ZM10 10.6667C8.89543 10.6667 8 9.77124 8 8.66667C8 7.5621 8.89543 6.66667 10 6.66667C11.1046 6.66667 12 7.5621 12 8.66667C12 9.77124 11.1046 10.6667 10 10.6667ZM10.6667 8.66667C10.6667 9.03486 10.3682 9.33333 10 9.33333C9.63181 9.33333 9.33333 9.03486 9.33333 8.66667C9.33333 8.29848 9.63181 8 10 8C10.3682 8 10.6667 8.29848 10.6667 8.66667Z" fill="var(--fill-0, #FF7A1A)"/>
</svg>
