<svg preserveAspectRatio="none" width="100%" height="100%" overflow="visible" style="display: block;" viewBox="0 0 14 18" fill="none" xmlns="http://www.w3.org/2000/svg">
<path id="IconShape" fill-rule="evenodd" clip-rule="evenodd" d="M4 6H10V4.46154C10 3.12927 8.69998 2 7 2C5.30002 2 4 3.12927 4 4.46154V6ZM12 6.17071V4.46154C12 1.9572 9.74686 0 7 0C4.25314 0 2 1.9572 2 4.46154V6.17071C0.834808 6.58254 0 7.69378 0 9V15C0 16.6569 1.34315 18 3 18H11C12.6569 18 14 16.6569 14 15V9C14 7.69378 13.1652 6.58254 12 6.17071ZM3 8C2.44772 8 2 8.44772 2 9V15C2 15.5523 2.44772 16 3 16H11C11.5523 16 12 15.5523 12 15V9C12 8.44772 11.5523 8 11 8H3Z" fill="var(--fill-0, #B6BEC6)"/>
</svg>
