<svg preserveAspectRatio="none" width="100%" height="100%" overflow="visible" style="display: block;" viewBox="0 0 15 15" fill="none" xmlns="http://www.w3.org/2000/svg">
<path id="IconShape" d="M13.333 4.66699C14.0694 4.66699 14.667 5.26362 14.667 6V13.333C14.667 14.0694 14.0694 14.667 13.333 14.667H9.33301C8.59678 14.6668 8 14.0693 8 13.333V6C8 5.26373 8.59678 4.66717 9.33301 4.66699H13.333ZM9.33301 12V13.333H13.333V12H9.33301ZM10.667 0C11.4031 0.000175696 11.9998 0.596886 12 1.33301V3.33301H10.667V1.33301H1.33301V4.66699H6.66699V6H1.33301V7.33301H6.66699V12H3.33301V10.667H5.33301V8.66699H1.33301C0.596778 8.66682 0 8.06928 0 7.33301V1.33301C0.000175825 0.596886 0.596886 0.000175889 1.33301 0H10.667ZM9.33301 10.667H13.333V6H9.33301V10.667Z" fill="var(--fill-0, #B6BEC6)"/>
</svg>
