<svg preserveAspectRatio="none" width="100%" height="100%" overflow="visible" style="display: block;" viewBox="0 0 15 15" fill="none" xmlns="http://www.w3.org/2000/svg">
<path id="IconShape" d="M12.7173 14.8613H2.21732V13.3613H12.7173V14.8613ZM6.69486 0.535139C6.96267 -0.17833 7.97212 -0.17848 8.23978 0.535139L10.0874 5.46287L13.6499 3.08787C14.2615 2.68017 15.0607 3.21579 14.9165 3.93651L12.7173 11.8613H2.21732L0.017123 3.93651C-0.127021 3.21579 0.672168 2.68017 1.28372 3.08787L4.84622 5.46287L6.69486 0.535139ZM5.95267 6.78612C5.76609 7.28365 5.16433 7.47735 4.7222 7.1826L1.80716 5.24022L3.34232 10.3613H11.5923L13.1265 5.24022L10.2115 7.1826C9.76934 7.47735 9.16855 7.28363 8.98197 6.78612L7.46732 2.74705L5.95267 6.78612Z" fill="var(--fill-0, #7975F2)"/>
</svg>
