<svg preserveAspectRatio="none" width="100%" height="100%" overflow="visible" style="display: block;" viewBox="0 0 739 28" fill="none" xmlns="http://www.w3.org/2000/svg">
<path id="Graph" d="M1 2.84579L9.4755 2L17.951 7.75134L25.8737 5.89061L34.3492 11.8111L42.4562 8.93544L50.9317 13.3335L59.0387 11.8111L67.33 12.8261L75.8055 18.2391L84.0967 16.5475L92.2037 18.2391L100.311 21.1147L108.786 21.7914L117.262 15.8709L125.369 23.4829L133.66 19.254L141.767 18.2391L150.058 19.7615L158.534 24.667L166.825 23.9904L174.932 21.1147L183.223 20.6073L191.514 24.667L200.174 21.1147L208.097 23.9904H216.572L224.864 19.7615L232.786 17.055L241.262 14.8559L249.553 23.3138H257.844L266.136 21.7914L274.243 23.9904L282.35 18.9157L290.641 23.9904L299.116 17.3933L307.223 21.7914L315.515 24.8362L323.806 21.7914L332.097 25.5128L340.573 21.7914L348.68 23.9904L357.155 26.5278H365.262H373.738H382.029L390.504 25.5128L398.427 26.0203L406.718 24.8362L415.194 26.5278H423.117H431.776H439.515H448.175L456.65 26.0203H464.757L473.048 23.9904L481.708 25.5128L489.447 24.8362H497.922L506.029 23.4829L514.32 25.5128L522.612 22.8063L530.903 24.8362L539.194 21.2839L547.485 24.8362L555.777 16.8858L563.884 24.8362L571.991 22.1297H580.466L588.573 19.9306L596.864 22.1297L605.524 18.9157L613.631 22.1297L622.107 19.9306L630.214 22.1297L638.321 19.4232L646.98 21.6222L655.272 17.7316L663.194 22.1297L671.486 16.2092L679.961 16.8858L688.252 14.0102L696.359 14.8559L704.651 12.3186L712.942 14.3485L721.233 8.93544H729.524L738 9.61207" stroke="var(--stroke-0, #0096AA)" stroke-width="2" stroke-linecap="round"/>
</svg>
