<svg preserveAspectRatio="none" width="100%" height="100%" overflow="visible" style="display: block;" viewBox="0 0 18 16" fill="none" xmlns="http://www.w3.org/2000/svg">
<path id="Vector" d="M18 15.1904H0V13.1904H18V15.1904ZM15.2383 0.24707C15.5892 0.0444252 15.9976 -0.0372632 16.3994 0.015625C16.8012 0.0685229 17.1744 0.252514 17.4609 0.539062C17.7475 0.825611 17.9315 1.19881 17.9844 1.60059C18.0373 2.00238 17.9556 2.41076 17.7529 2.76172C17.5503 3.11249 17.2376 3.38699 16.8633 3.54199C16.489 3.69694 16.0739 3.72399 15.6826 3.61914L12.7314 6.57129C12.8041 6.84385 12.8131 7.12966 12.7578 7.40625C12.7025 7.68285 12.584 7.94331 12.4121 8.16699C12.2403 8.39053 12.0195 8.57163 11.7666 8.69629C11.5136 8.82096 11.2352 8.88568 10.9531 8.88574C10.6709 8.88574 10.3918 8.82101 10.1387 8.69629C9.88581 8.57162 9.66497 8.39052 9.49316 8.16699C9.32129 7.9433 9.20279 7.68287 9.14746 7.40625C9.09218 7.12967 9.10123 6.84383 9.17383 6.57129L7.52441 4.9209C7.21221 5.00414 6.88351 5.00409 6.57129 4.9209L3.61914 7.87207C3.72406 8.26351 3.69705 8.67929 3.54199 9.05371C3.38695 9.428 3.11254 9.74074 2.76172 9.94336C2.41076 10.146 2.00238 10.2267 1.60059 10.1738C1.19884 10.1209 0.825595 9.93692 0.539062 9.65039C0.252648 9.36386 0.0684974 8.99054 0.015625 8.58887C-0.0371434 8.18722 0.0445009 7.77954 0.24707 7.42871C0.449716 7.07778 0.762313 6.80349 1.13672 6.64844C1.5111 6.49341 1.92598 6.46639 2.31738 6.57129L5.26953 3.61914C5.19654 3.34641 5.18705 3.06009 5.24219 2.7832C5.29732 2.5066 5.41524 2.24625 5.58691 2.02246C5.75875 1.79858 5.98029 1.61704 6.2334 1.49219C6.48662 1.36734 6.76552 1.30176 7.04785 1.30176C7.33002 1.30178 7.60823 1.36745 7.86133 1.49219C8.11455 1.61704 8.33591 1.7985 8.50781 2.02246C8.67964 2.24634 8.79836 2.50643 8.85352 2.7832C8.90865 3.06009 8.89917 3.34641 8.82617 3.61914L10.4766 5.26953C10.7885 5.18643 11.1167 5.18646 11.4287 5.26953L14.3809 2.31738C14.276 1.92607 14.3031 1.51102 14.458 1.13672C14.613 0.762436 14.8875 0.449722 15.2383 0.24707Z" fill="var(--fill-0, #6B7C8C)"/>
</svg>
