<svg preserveAspectRatio="none" width="100%" height="100%" overflow="visible" style="display: block;" viewBox="0 0 16 18" fill="none" xmlns="http://www.w3.org/2000/svg">
<path id="IconShape" fill-rule="evenodd" clip-rule="evenodd" d="M0.267511 17.0032C0.817421 17.9579 2.03296 18.2836 2.9825 17.7307L15.0086 10.7284C15.3088 10.5536 15.5583 10.3028 15.7322 10.0009C16.2821 9.04625 15.9581 7.82415 15.0086 7.27127L2.9825 0.268955C2.67992 0.0927754 2.33645 0 1.9868 0C0.889519 0 0 0.894319 0 1.99752V16.0022C0 16.3537 0.0922775 16.699 0.267511 17.0032ZM14.0129 8.99983L11.0613 10.7184L9.35206 8.99993L11.0614 7.28133L14.0129 8.99983ZM9.28214 6.24531L2.93824 2.5515L7.94718 7.58748L9.28214 6.24531ZM6.54231 8.99994L1.9868 4.41984V13.58L6.54231 8.99994ZM2.93871 15.4479L9.28202 11.7544L7.94718 10.4124L2.93871 15.4479Z" fill="var(--fill-0, #B6BEC6)"/>
</svg>
