<svg preserveAspectRatio="none" width="100%" height="100%" overflow="visible" style="display: block;" viewBox="0 0 15 12" fill="none" xmlns="http://www.w3.org/2000/svg">
<path id="IconShape" fill-rule="evenodd" clip-rule="evenodd" d="M0 4L7.33333 0L14.6667 4L12 5.45455V9.09407C12 9.317 11.8741 9.52315 11.6692 9.63548L7.66667 11.9146C7.45909 12.0285 7.20241 12.0285 6.99484 11.9146L2.99742 9.63548C2.79261 9.52315 2.66667 9.317 2.66667 9.09407V5.45455L1.33333 4.72727L1.33333 8.66668C1.33333 9.03487 1.03486 9.33334 0.666666 9.33334C0.298477 9.33334 0 9.03487 0 8.66668V4ZM4 6.18182V8.66667L7.33333 10.6667L10.6667 8.66667V6.18182L7.33333 8L4 6.18182ZM2.66667 4L7.33333 6.66667L12 4L7.33333 1.33333L2.66667 4Z" fill="var(--fill-0, white)"/>
</svg>
