<svg preserveAspectRatio="none" width="100%" height="100%" overflow="visible" style="display: block;" viewBox="0 0 738 42" fill="none" xmlns="http://www.w3.org/2000/svg">
<path id="Graph" d="M1 17.055L9.10005 23.6521L17.3842 20.7764L25.8524 19.9306L34.1366 23.9904L42.2366 22.6372L50.7049 21.6222L58.8049 22.6372L67.089 23.9904L75.5573 24.8362L83.8414 27.2044L92.1256 28.0502L100.042 25.3437L108.51 21.6222L116.978 27.2044L124.894 25.3437L133.362 21.6222L141.462 18.0699L149.93 17.055L158.215 18.0699L166.315 20.269L174.783 23.3138L182.699 13.6718L191.351 18.5774L199.451 21.6222L207.551 18.0699L216.02 15.8709L224.304 18.5774L232.404 19.254L240.872 15.8709L249.156 14.6868L257.44 15.8709L265.724 18.0699L273.64 16.8858L282.293 15.8709L290.393 11.9803L298.677 9.61207L306.961 14.6868L315.245 10.7962L323.529 16.8858L331.813 10.7962L340.098 12.6569L348.382 10.7962H356.85L364.95 12.6569L373.05 14.6868L381.334 4.3682L389.618 10.7962L397.902 8.08965L406.002 4.3682L414.655 10.7962L422.755 5.72146H431.039L439.139 2L447.607 9.44291L455.891 8.08965L464.176 11.4728L472.46 6.22893L480.744 3.01494L488.844 4.53736L497.128 7.07471L505.596 11.4728H513.696L521.98 8.59713H530.081L538.549 11.4728L546.833 17.9008L554.933 15.3634H563.401L571.685 16.8858L579.969 21.1147H588.07L596.354 16.8858L604.638 13.841L612.922 14.8559L621.206 18.5774L629.49 24.3287L637.406 23.4829L645.874 24.3287H654.343L662.443 21.9605L670.727 24.3287L679.195 32.4483L687.479 30.4184L695.579 31.4333H703.863L712.148 36.508L720.248 32.4483L728.716 40.737L737 37.8613" stroke="var(--stroke-0, #912AA2)" stroke-width="2" stroke-linecap="round"/>
</svg>
