<svg preserveAspectRatio="none" width="100%" height="100%" overflow="visible" style="display: block;" viewBox="0 0 18 18" fill="none" xmlns="http://www.w3.org/2000/svg">
<g id="Vector">
<path d="M9 0C4.032 0 0 3.9636 0 8.847C0 13.7313 4.032 17.694 9 17.694C13.968 17.694 18 13.7313 18 8.847C18 3.9636 13.968 0 9 0ZM9 15.9255C5.031 15.9255 1.8 12.7485 1.8 8.8488C1.8 4.9464 5.031 1.7703 9 1.7703C12.969 1.7703 16.2 4.9473 16.2 8.8488C16.2 12.7503 12.969 15.9255 9 15.9255Z" fill="var(--fill-0, #6B7C8C)"/>
<path d="M8 8H10V14H8V8Z" fill="var(--fill-0, #6B7C8C)"/>
<path d="M8 4H10V6H8V4Z" fill="var(--fill-0, #6B7C8C)"/>
</g>
</svg>
