<svg preserveAspectRatio="none" width="100%" height="100%" overflow="visible" style="display: block;" viewBox="0 0 738 50" fill="none" xmlns="http://www.w3.org/2000/svg">
<path id="Graph" d="M1 1L9.28414 1.67663L17.5683 4.04483L25.8524 6.07471L34.1366 6.41302L42.2366 7.42797L50.7049 10.642L58.8049 10.8111L67.089 12.1644L75.5573 15.3783H83.6573L91.9415 18.4232L100.226 17.9157L108.51 20.1147L116.794 20.7914L124.894 21.2988L133.362 21.8063L141.646 23.667H149.746L158.031 25.5278H166.315L174.783 27.3885L182.883 27.5577L191.167 27.3885L199.451 25.1895L207.735 24.5128L216.02 22.3138L224.304 21.6372L232.588 19.4381L240.872 18.5923L249.156 16.3933L257.256 15.7167L265.724 13.5176L273.824 12.6718L282.109 11.1494H290.393L298.677 9.96532H306.961L315.245 8.61207H323.529L331.813 7.25881L339.913 7.42797L348.382 6.07471H356.482L364.95 4.5523L373.05 5.90555L381.518 6.58218L389.618 8.95038L397.902 9.45785L406.187 11.6569L414.471 12.5027L422.755 14.7017L431.039 15.2092L439.323 17.7465L447.423 18.254L455.891 20.4531H464.176L472.46 21.6372L480.56 20.7914L488.844 21.468L497.128 20.7914L505.412 21.8063L513.88 20.9605L521.981 21.8063L530.265 20.9605L538.365 22.1446L546.833 21.2988L555.117 22.6521H563.401L571.685 24.8511L579.785 25.0203L588.254 27.0502L596.538 27.3885L604.638 29.4184L612.738 29.5875L621.39 32.1249H629.49L637.774 34.3239H646.059L654.343 36.6921H662.627L670.911 38.8912L679.195 39.5678L687.479 41.2594L695.579 41.936L703.863 43.6276L712.148 44.3042L720.432 46.1649L728.716 46.5032L737 48.364" stroke="var(--stroke-0, #3E74FE)" stroke-width="2" stroke-linecap="round"/>
</svg>
