<svg preserveAspectRatio="none" width="100%" height="100%" overflow="visible" style="display: block;" viewBox="0 0 22 22" fill="none" xmlns="http://www.w3.org/2000/svg">
<path id="IconShape" fill-rule="evenodd" clip-rule="evenodd" d="M18 8L19.25 5.25L22 4L19.25 2.75L18 0L16.75 2.75L14 4L16.75 5.25L18 8ZM18 14L16.75 16.75L14 18L16.75 19.25L18 22L19.25 19.25L22 18L19.25 16.75L18 14ZM8 3L10.5 8.5L16 11L10.5 13.5L8 19L5.5 13.5L0 11L5.5 8.5L8 3ZM8 14.17L8.99 11.99L11.17 11L8.99 10.01L8 7.83L7.01 10.01L4.83 11L7.01 11.99L8 14.17Z" fill="var(--fill-0, #B6BEC6)"/>
</svg>
