<svg preserveAspectRatio="none" width="100%" height="100%" overflow="visible" style="display: block;" viewBox="0 0 16 16" fill="none" xmlns="http://www.w3.org/2000/svg">
<g id="Icon/Flag/united-states-of-america">
<circle id="Oval" cx="8" cy="8" r="8" fill="var(--fill-0, #F0F0F0)"/>
<g id="Group">
<path id="Shape" d="M7.65219 8H16C16 7.27794 15.9038 6.57844 15.7244 5.91303H7.65219V8Z" fill="var(--fill-0, #D80027)"/>
<path id="Shape_2" d="M7.65219 3.82609H14.8258C14.3361 3.02697 13.7099 2.32063 12.9799 1.73913H7.65219V3.82609Z" fill="var(--fill-0, #D80027)"/>
<path id="Shape_3" d="M8 16C9.88278 16 11.6133 15.3493 12.9799 14.2609H3.02013C4.38669 15.3493 6.11722 16 8 16Z" fill="var(--fill-0, #D80027)"/>
<path id="Shape_4" d="M1.17419 12.1739H14.8258C15.219 11.5324 15.5239 10.8311 15.7244 10.0869H0.275594C0.476125 10.8311 0.781031 11.5324 1.17419 12.1739Z" fill="var(--fill-0, #D80027)"/>
</g>
<path id="Shape_5" fill-rule="evenodd" clip-rule="evenodd" d="M4.43478 1.24931H3.70575C4.94641 0.458438 6.41963 0 8 0V8H0C0 7.66216 0.0211875 7.32928 0.0618437 7.00247L0.468031 6.70734L1.14613 7.2L0.887094 6.40284L1.56522 5.91019H0.727031L0.499938 5.21119C0.578531 4.99978 0.665969 4.79269 0.761563 4.59016L1.14613 4.86956L0.94 4.23516C1.00181 4.1195 1.06631 4.00553 1.13356 3.89334L1.56522 3.57975H1.33162C1.76288 2.9305 2.28619 2.34781 2.88325 1.85047L2.6595 2.53912L3.33759 2.04647L4.01569 2.53912L3.75666 1.74197L4.43478 1.24931ZM3.33759 6.70734L4.01569 7.2L3.75666 6.40284L4.43478 5.91019H3.59659L3.33759 5.11303L3.07859 5.91019H2.24041L2.91853 6.40284L2.6595 7.2L3.33759 6.70734ZM3.75666 4.07241L4.01569 4.86956L3.33759 4.37691L2.6595 4.86956L2.91853 4.07241L2.24041 3.57975H3.07859L3.33759 2.78259L3.59659 3.57975H4.43478L3.75666 4.07241ZM6.20716 6.70734L6.88525 7.2L6.62622 6.40284L7.30434 5.91019H6.46616L6.20716 5.11303L5.94816 5.91019H5.10997L5.78809 6.40284L5.52906 7.2L6.20716 6.70734ZM6.62622 4.07241L6.88525 4.86956L6.20716 4.37691L5.52906 4.86956L5.78809 4.07241L5.10997 3.57975H5.94816L6.20716 2.78259L6.46616 3.57975H7.30434L6.62622 4.07241ZM6.88525 2.53912L6.62622 1.74197L7.30434 1.24931H6.46616L6.20716 0.452156L5.94816 1.24931H5.10997L5.78809 1.74197L5.52906 2.53912L6.20716 2.04647L6.88525 2.53912Z" fill="var(--fill-0, #0052B4)"/>
</g>
</svg>
