<svg preserveAspectRatio="none" width="100%" height="100%" overflow="visible" style="display: block;" viewBox="0 0 105 105" fill="none" xmlns="http://www.w3.org/2000/svg">
<g id="Frame 2193">
<path id="Ellipse 2" d="M51.8582 0.00392251C42.1768 0.122276 32.7166 2.91559 24.5237 8.07505C16.3307 13.2345 9.72414 20.5591 5.4343 29.2391C1.14447 37.9191 -0.661485 47.6162 0.216102 57.2586C1.09369 66.9009 4.62063 76.1127 10.407 83.8756L27.2328 71.3338C23.7595 66.674 21.6424 61.1444 21.1156 55.3564C20.5888 49.5684 21.6728 43.7475 24.2479 38.5372C26.823 33.3269 30.7887 28.9301 35.7067 25.8331C40.6247 22.736 46.3033 21.0592 52.1148 20.9882L51.8582 0.00392251Z" fill="var(--fill-0, #3E74FE)"/>
<path id="Ellipse 3" d="M10.5716 84.0953C14.7208 89.6014 19.9138 94.2364 25.8542 97.7355C31.7947 101.235 38.3661 103.53 45.1934 104.489C52.0207 105.449 58.9702 105.054 65.645 103.328C72.3198 101.602 78.5892 98.5775 84.0953 94.4284L71.4657 77.6683C68.1605 80.1589 64.3972 81.9742 60.3905 83.0104C56.3838 84.0465 52.2123 84.2834 48.1141 83.7075C44.0159 83.1315 40.0712 81.754 36.5054 79.6535C32.9395 77.5531 29.8223 74.7708 27.3317 71.4657L10.5716 84.0953Z" fill="var(--fill-0, #435993)"/>
<path id="Ellipse 4" d="M84.8222 93.8706C93.5588 87.0448 99.9103 77.6284 102.966 66.971C106.022 56.3135 105.626 44.9622 101.834 34.5439L82.1136 41.7215C84.3898 47.9753 84.6278 54.7891 82.7933 61.1865C80.9589 67.5838 77.1464 73.2362 71.902 77.3335L84.8222 93.8706Z" fill="var(--fill-0, #FF7A1A)"/>
<path id="Ellipse 5" d="M101.513 33.6857C97.5398 23.3352 90.3918 14.5082 81.0936 8.4698L69.6638 26.07C75.2453 29.6947 79.536 34.9932 81.921 41.2063L101.513 33.6857Z" fill="var(--fill-0, #00CA9A)"/>
<path id="Ellipse 6" d="M80.3208 7.97748C71.8721 2.69817 62.0957 -0.0682671 52.1335 0.00127923L52.28 20.9866C58.26 20.9449 64.1285 22.6055 69.2 25.7745L80.3208 7.97748Z" fill="var(--fill-0, #FFB800)"/>
</g>
</svg>
