<svg preserveAspectRatio="none" width="100%" height="100%" overflow="visible" style="display: block;" viewBox="0 0 1256 143" fill="none" xmlns="http://www.w3.org/2000/svg">
<path id="Graph" d="M1 2L15.1146 11.5L29.2291 2L43.3437 7L57.1446 16L71.5728 17.5L86.001 11.5L99.4882 14L113.603 22.5L127.717 14L141.832 24.5L155.946 32L170.061 39L183.862 17L198.29 4H212.091L226.519 17L240.634 32L254.435 39L268.549 28.5L282.977 24.5H296.465L310.893 32H325.008L339.436 42.5H353.237L367.351 41H381.466L395.58 47L409.695 57L423.809 67L437.61 64.5L451.725 67L465.839 72.5L480.268 85.5L494.382 77.5L508.183 75L522.611 77.5L536.412 96L550.527 110L564.955 108.5L578.442 113.5L592.87 125L606.985 120.5L620.786 125L635.214 141L649.329 101.5L663.443 128L677.558 116L691.359 111.5L705.16 125L719.588 96.5L733.389 107L747.817 84.5L761.931 104.5L776.046 84.5L790.161 79L803.962 66.5L818.076 79L832.504 63H846.305L860.42 70.5L874.848 79L888.649 66.5L902.45 58L916.878 41L930.679 23.5L944.793 56L958.908 23.5L973.336 70.5L987.764 42.5L1001.25 37L1015.05 52.5L1029.48 63.5H1043.6L1057.71 47H1071.82L1085.94 52.5L1100.05 59L1114.17 52.5H1127.97L1142.08 47L1156.51 56L1170.31 63.5L1184.43 71.5L1198.54 70L1212.66 56H1226.46L1240.89 63.5L1255 107" stroke="var(--stroke-0, #BB3F3F)" stroke-width="2" stroke-linecap="round"/>
</svg>
