<svg preserveAspectRatio="none" width="100%" height="100%" overflow="visible" style="display: block;" viewBox="0 0 14 13" fill="none" xmlns="http://www.w3.org/2000/svg">
<path id="IconShape" fill-rule="evenodd" clip-rule="evenodd" d="M13.2487 11.0263L7.24831 0.340377C7.18836 0.233622 7.10018 0.145437 6.99342 0.0854919C6.67238 -0.0947784 6.26599 0.0193376 6.08572 0.340377L0.0853732 11.0263C0.0293992 11.126 0 11.2384 0 11.3527C0 11.7209 0.298477 12.0193 0.666667 12.0193H12.6674C12.7817 12.0193 12.8941 11.9899 12.9938 11.934C13.3148 11.7537 13.4289 11.3473 13.2487 11.0263ZM1.80559 10.686L6.66701 2.02841L11.5284 10.686H1.80559ZM6.00041 4.68601H7.33374V7.35268H6.00041V4.68601ZM7.33374 8.01935H6.00041V9.35268H7.33374V8.01935Z" fill="var(--fill-0, #6B7C8C)"/>
</svg>
