<svg preserveAspectRatio="none" width="100%" height="100%" overflow="visible" style="display: block;" viewBox="0 0 7 9" fill="none" xmlns="http://www.w3.org/2000/svg">
<path id="IconShape" fill-rule="evenodd" clip-rule="evenodd" d="M2 3H5V2.23077C5 1.56464 4.34999 1 3.5 1C2.65001 1 2 1.56464 2 2.23077V3ZM6 3.08535V2.23077C6 0.978602 4.87343 0 3.5 0C2.12657 0 1 0.978602 1 2.23077V3.08535C0.417404 3.29127 0 3.84689 0 4.5V7.5C0 8.32843 0.671573 9 1.5 9H5.5C6.32843 9 7 8.32843 7 7.5V4.5C7 3.84689 6.5826 3.29127 6 3.08535ZM1.5 4C1.22386 4 1 4.22386 1 4.5V7.5C1 7.77614 1.22386 8 1.5 8H5.5C5.77614 8 6 7.77614 6 7.5V4.5C6 4.22386 5.77614 4 5.5 4H1.5Z" fill="var(--fill-0, #FF7A1A)"/>
</svg>
