<svg preserveAspectRatio="none" width="100%" height="100%" overflow="visible" style="display: block;" viewBox="0 0 22 20" fill="none" xmlns="http://www.w3.org/2000/svg">
<path id="Vector" fill-rule="evenodd" clip-rule="evenodd" d="M3 0H19C20.6569 0 22 1.34315 22 3V17C22 18.6569 20.6569 20 19 20H3C1.34315 20 0 18.6569 0 17V3C0 1.34315 1.34315 0 3 0ZM3 2C2.44772 2 2 2.44772 2 3V4H20V3C20 2.44772 19.5523 2 19 2H3ZM20 6H2V17C2 17.5523 2.44772 18 3 18H19C19.5523 18 20 17.5523 20 17V6ZM10 8V16H8V8H10ZM6 16V11H4V16H6ZM15 16C13.3431 16 12 14.6569 12 13C12 11.3431 13.3431 10 15 10C16.6569 10 18 11.3431 18 13C18 14.6569 16.6569 16 15 16ZM16 13C16 13.5523 15.5523 14 15 14C14.4477 14 14 13.5523 14 13C14 12.4477 14.4477 12 15 12C15.5523 12 16 12.4477 16 13Z" fill="var(--fill-0, #6B7C8C)"/>
</svg>
