<svg preserveAspectRatio="none" width="100%" height="100%" overflow="visible" style="display: block;" viewBox="0 0 10 10" fill="none" xmlns="http://www.w3.org/2000/svg">
<path id="IconShape" fill-rule="evenodd" clip-rule="evenodd" d="M9.93649 8.2697L5.43623 0.255283C5.39127 0.175217 5.32513 0.109078 5.24507 0.0641189C5.00429 -0.0710838 4.69949 0.0145032 4.56429 0.255283L0.0640299 8.2697C0.0220494 8.34447 0 8.42877 0 8.51451C0 8.79065 0.223858 9.01451 0.5 9.01451H9.50052C9.58626 9.01451 9.67057 8.99246 9.74533 8.95048C9.98611 8.81528 10.0717 8.51048 9.93649 8.2697ZM1.35419 8.01451L5.00026 1.52131L8.64633 8.01451H1.35419ZM4.50031 3.51451H5.50031V5.51451H4.50031V3.51451ZM5.50031 6.01451H4.50031V7.01451H5.50031V6.01451Z" fill="var(--fill-0, #6B7C8C)"/>
</svg>
