<svg preserveAspectRatio="none" width="100%" height="100%" overflow="visible" style="display: block;" viewBox="0 0 22 18" fill="none" xmlns="http://www.w3.org/2000/svg">
<path id="IconShape" fill-rule="evenodd" clip-rule="evenodd" d="M0 6L11 0L22 6L18 8.18182V13.6411C18 13.9755 17.8111 14.2847 17.5039 14.4532L11.5 17.8719C11.1886 18.0427 10.8036 18.0427 10.4923 17.8719L4.49613 14.4532C4.18891 14.2847 4 13.9755 4 13.6411V8.18182L2 7.09091L2 13C2 13.5523 1.55228 14 1 14C0.447715 14 0 13.5523 0 13V6ZM6 9.27273V13L11 16L16 13V9.27273L11 12L6 9.27273ZM4 6L11 10L18 6L11 2L4 6Z" fill="var(--fill-0, #B6BEC6)"/>
</svg>
