<svg preserveAspectRatio="none" width="100%" height="100%" overflow="visible" style="display: block;" viewBox="0 0 22 22" fill="none" xmlns="http://www.w3.org/2000/svg">
<g id="Icon/Flag/united-states-of-america">
<circle id="Oval" cx="11" cy="11" r="11" fill="var(--fill-0, #F0F0F0)"/>
<g id="Group">
<path id="Shape" d="M10.5218 11H22C22 10.0072 21.8677 9.04535 21.6211 8.13042H10.5218V11Z" fill="var(--fill-0, #D80027)"/>
<path id="Shape_2" d="M10.5218 5.26088H20.3855C19.7121 4.16208 18.8512 3.19086 17.8473 2.3913H10.5218V5.26088Z" fill="var(--fill-0, #D80027)"/>
<path id="Shape_3" d="M11 22C13.5888 22 15.9683 21.1052 17.8473 19.6087H4.15267C6.0317 21.1052 8.41118 22 11 22Z" fill="var(--fill-0, #D80027)"/>
<path id="Shape_4" d="M1.61451 16.7391H20.3855C20.9261 15.857 21.3453 14.8928 21.6211 13.8695H0.378941C0.654672 14.8928 1.07392 15.857 1.61451 16.7391Z" fill="var(--fill-0, #D80027)"/>
</g>
<path id="Shape_5" fill-rule="evenodd" clip-rule="evenodd" d="M6.09782 1.7178H5.09541C6.80131 0.630352 8.82698 0 11 0V11H0C0 10.5355 0.0291328 10.0778 0.0850352 9.62839L0.643543 9.2226L1.57592 9.9L1.21975 8.80391L2.15218 8.12651H0.999668L0.687414 7.16538C0.79548 6.8747 0.915707 6.58995 1.04715 6.31146L1.57592 6.69565L1.2925 5.82334C1.37749 5.66431 1.46618 5.50761 1.55865 5.35335L2.15218 4.92216H1.83098C2.42395 4.02944 3.14351 3.22824 3.96447 2.54439L3.65681 3.4913L4.58919 2.81389L5.52157 3.4913L5.1654 2.39521L6.09782 1.7178ZM4.58919 9.2226L5.52157 9.9L5.1654 8.80391L6.09782 8.12651H4.94532L4.58919 7.03042L4.23307 8.12651H3.08056L4.01298 8.80391L3.65681 9.9L4.58919 9.2226ZM5.1654 5.59956L5.52157 6.69565L4.58919 6.01825L3.65681 6.69565L4.01298 5.59956L3.08056 4.92216H4.23307L4.58919 3.82607L4.94532 4.92216H6.09782L5.1654 5.59956ZM8.53484 9.2226L9.46722 9.9L9.11105 8.80391L10.0435 8.12651H8.89096L8.53484 7.03042L8.17871 8.12651H7.02621L7.95863 8.80391L7.60246 9.9L8.53484 9.2226ZM9.11105 5.59956L9.46722 6.69565L8.53484 6.01825L7.60246 6.69565L7.95863 5.59956L7.02621 4.92216H8.17871L8.53484 3.82607L8.89096 4.92216H10.0435L9.11105 5.59956ZM9.46722 3.4913L9.11105 2.39521L10.0435 1.7178H8.89096L8.53484 0.621715L8.17871 1.7178H7.02621L7.95863 2.39521L7.60246 3.4913L8.53484 2.81389L9.46722 3.4913Z" fill="var(--fill-0, #0052B4)"/>
</g>
</svg>
