<svg preserveAspectRatio="none" width="100%" height="100%" overflow="visible" style="display: block;" viewBox="0 0 16 20" fill="none" xmlns="http://www.w3.org/2000/svg">
<path id="IconShape" d="M16 1.58008L14.3584 2.56738C14.6303 2.98636 14.7179 3.49224 14.6025 3.97363C14.4872 4.45501 14.1782 4.87288 13.7432 5.13477L13.2461 5.43262C14.7526 7.32525 15.1534 9.82688 14.3086 12.0684C13.4637 14.3099 11.4899 15.982 9.07324 16.5039V18.1367H15.8457V20H0.366211V18.1367H7.13867V16.6631C5.30925 16.5804 3.58009 15.8331 2.30078 14.5713L3.68457 13.2676C5.67703 15.2353 8.92724 15.3392 11.0508 13.5029C13.174 11.6666 13.4144 8.54458 11.5957 6.42676L3.07715 11.5518L0 6.8125L10.667 0.393555C11.1023 0.131858 11.6279 0.0479138 12.1279 0.15918C12.6279 0.27045 13.0612 0.568321 13.333 0.987305L14.9746 0L16 1.58008ZM3 7.22266L4.02051 8.7998L13 3.37695L11.9795 1.7998L3 7.22266Z" fill="var(--fill-0, #B6BEC6)"/>
</svg>
