<svg preserveAspectRatio="none" width="100%" height="100%" overflow="visible" style="display: block;" viewBox="0 0 1256 123" fill="none" xmlns="http://www.w3.org/2000/svg">
<path id="Graph" d="M1 106L14.8009 114.5L28.9155 105H43.03L57.4582 120L71.2591 102.5L85.3737 116.5L99.8019 108.5L113.603 116.5L127.717 111.5L142.146 117.5L156.26 115H170.061L184.176 110L198.29 106.5L212.405 121.5L226.833 111L240.634 110L254.748 103.5L268.863 114.5L282.977 104.5L296.778 117L311.207 106H325.008L339.436 114.5L353.237 117L367.038 93.5L381.466 83L395.58 111L409.381 97L423.496 110L437.61 97L452.039 104L465.839 96L480.268 106L494.696 98L507.869 91.5L521.984 101.5L536.412 98H550.527L564.641 107L578.756 105.5L592.87 87L606.985 98L620.786 93L635.214 102.5L649.015 96.5H663.443L677.244 90L691.359 104.5L705.787 96.5H719.588L733.702 86.5L747.817 104.5L761.618 95H776.046L790.161 106L804.275 104.5L818.076 79.5L832.191 66.5L846.619 95L860.733 80.5L874.221 77.5L888.963 74.5L902.763 82L916.878 66.5L930.993 71.5L944.793 59L959.222 66.5L973.336 57.5L987.451 61.5L1001.25 62.5L1015.68 46.5H1029.79L1043.6 44L1057.71 48L1071.82 38.5L1085.94 36.5L1100.05 33L1114.17 31L1128.28 14.5L1142.4 8L1156.2 23L1170.63 35L1184.43 18L1212.66 26L1226.46 10L1240.89 2L1255 5" stroke="var(--stroke-0, #FFB800)" stroke-width="2" stroke-linecap="round"/>
</svg>
