<svg preserveAspectRatio="none" width="100%" height="100%" overflow="visible" style="display: block;" viewBox="0 0 14 14" fill="none" xmlns="http://www.w3.org/2000/svg">
<path id="IconShape" d="M5.33301 1.33301H8V0H10.667V1.33301H13.333V13.333H0V1.33301H2.66699V0H5.33301V1.33301ZM1.33301 12H12V5.33301H1.33301V12ZM4.66699 10.667H3.33301V9.33301H4.66699V10.667ZM7.33301 10.667H6V9.33301H7.33301V10.667ZM10 10.667H8.66699V9.33301H10V10.667ZM4.66699 8H3.33301V6.66699H4.66699V8ZM7.33301 8H6V6.66699H7.33301V8ZM10 8H8.66699V6.66699H10V8ZM1.33301 4H12V2.66602H1.33301V4Z" fill="var(--fill-0, #6B7C8C)"/>
</svg>
