<svg preserveAspectRatio="none" width="100%" height="100%" overflow="visible" style="display: block;" viewBox="0 0 1256 118" fill="none" xmlns="http://www.w3.org/2000/svg">
<path id="Graph" d="M1 46.5L14.8009 66L28.9155 57.5L43.3437 55L57.4582 67L71.2591 63L85.6873 60L99.4882 63L113.603 67L128.031 69.5L142.146 76.5L156.26 79L169.747 71L184.176 60L198.604 76.5L212.091 71L226.519 60L240.32 49.5L254.748 46.5L268.863 49.5L282.664 56L297.092 65L310.579 36.5L325.321 51L339.122 60L352.923 49.5L367.351 43L381.466 51L395.267 53L409.695 43L423.809 39.5L437.924 43L452.039 49.5L465.526 46L480.268 43L494.069 31.5L508.183 24.5L522.298 39.5L536.412 28L550.527 46L564.641 28L578.756 33.5L592.87 28H607.299L621.1 33.5L634.9 39.5L649.015 9L663.13 28L677.244 20L691.045 9L705.787 28L719.588 13H733.702L747.503 2L761.931 24L776.046 20L790.161 30L804.275 14.5L818.39 5L832.191 9.5L846.305 17L860.733 30H874.534L888.649 21.5H902.45L916.878 30L930.993 49L944.793 41.5H959.222L973.336 46L987.451 58.5H1001.25L1015.37 46L1029.48 37L1043.6 40L1057.71 51L1071.82 68L1085.31 65.5L1099.74 68H1114.17L1127.97 61L1142.08 68L1156.51 92L1170.63 86L1184.43 89H1198.54L1212.66 104L1226.46 92L1240.89 116.5L1255 108" stroke="var(--stroke-0, #912AA2)" stroke-width="2" stroke-linecap="round"/>
</svg>
