<svg preserveAspectRatio="none" width="100%" height="100%" overflow="visible" style="display: block;" viewBox="0 0 738 44" fill="none" xmlns="http://www.w3.org/2000/svg">
<path id="Graph" d="M1 37.1847L9.10005 40.0603L17.3842 36.8464H25.6683L34.1366 41.9211L42.2366 36.0006L50.5208 40.737L58.989 38.0305L67.089 40.737L75.3732 39.0454L83.8414 41.0753L92.1256 40.2295H100.226L108.51 38.5379L116.794 37.3538L125.078 42.4285L133.546 38.8762L141.646 38.5379L149.93 36.3389L158.215 40.0603L166.499 36.6772L174.599 40.9061L183.067 37.1847H191.167L199.635 40.0603L207.735 40.9061L215.835 32.9557L224.304 29.4034L232.588 38.8762L240.688 34.1398L248.972 38.5379L257.256 34.1398L265.724 36.508L273.824 33.8015L282.293 37.1847L290.761 34.4782L298.493 32.2791L306.777 35.6623L315.245 34.4782H323.529L331.813 37.523L340.098 37.0155L348.382 30.7567L356.666 34.4782L364.766 32.7866L373.234 36.0006L381.334 33.9707H389.802L397.902 31.7716L406.187 36.6772L414.655 33.9707H422.755L431.039 30.5875L439.323 36.6772L447.423 33.4632H455.891L464.176 37.1847L472.46 36.6772L480.56 28.2193L488.844 23.8213L497.312 33.4632L505.596 28.5577L513.512 27.5427L522.165 26.5278L530.265 29.0651L538.549 23.8213L546.833 25.5128L554.933 21.2839L563.401 23.8213L571.685 20.7764L579.969 22.1297L588.07 22.468L596.538 17.055H604.822L612.922 16.2092L621.206 17.5625L629.49 14.3485L637.774 13.6718L646.059 12.4877L654.343 11.8111L662.627 6.22893L670.911 4.02989L679.011 9.1046L687.479 13.1644L695.579 7.41303L712.148 10.1195L720.248 4.70651L728.716 2L737 3.01494" stroke="var(--stroke-0, #FFB800)" stroke-width="2" stroke-linecap="round"/>
</svg>
