<svg preserveAspectRatio="none" width="100%" height="100%" overflow="visible" style="display: block;" viewBox="0 0 14 12" fill="none" xmlns="http://www.w3.org/2000/svg">
<path id="IconShape" fill-rule="evenodd" clip-rule="evenodd" d="M2.27614 6.99019C2.62511 6.64121 2.74021 6.14693 2.62142 5.70211L4.7593 3.56422C4.98523 3.62456 5.22391 3.62456 5.44984 3.56422L6.64491 4.7593C6.52612 5.20412 6.64121 5.69841 6.99019 6.04738C7.51089 6.56808 8.35511 6.56808 8.87581 6.04738C9.22478 5.69841 9.33987 5.20412 9.22108 4.7593L11.359 2.62142C11.8038 2.74021 12.2981 2.62511 12.647 2.27614C13.1677 1.75544 13.1677 0.911223 12.647 0.390524C12.1263 -0.130175 11.2821 -0.130175 10.7614 0.390524C10.4125 0.739497 10.2974 1.23378 10.4162 1.67861L8.27827 3.81649C8.05234 3.75615 7.81365 3.75615 7.58772 3.81649L6.39265 2.62142C6.51144 2.17659 6.39635 1.68231 6.04738 1.33333C5.52668 0.812634 4.68246 0.812634 4.16176 1.33333C3.81279 1.68231 3.6977 2.17659 3.81649 2.62142L1.67861 4.7593C1.23378 4.64051 0.739497 4.7556 0.390524 5.10457C-0.130175 5.62527 -0.130175 6.46949 0.390524 6.99019C0.911223 7.51089 1.75544 7.51089 2.27614 6.99019ZM13.3333 10.6667H0V12H13.3333V10.6667Z" fill="var(--fill-0, #092540)"/>
</svg>
