<svg preserveAspectRatio="none" width="100%" height="100%" overflow="visible" style="display: block;" viewBox="0 0 7 7" fill="none" xmlns="http://www.w3.org/2000/svg">
<g id="IconShape">
<path fill-rule="evenodd" clip-rule="evenodd" d="M3 0C2.88766 0 2.77647 0.00507303 2.66667 0.015003V4H6.65168C6.6616 3.89021 6.66667 3.77903 6.66667 3.66667C6.66667 1.64574 5.02504 0 3 0ZM5.98162 3.33333C5.82756 1.94475 4.72261 0.839126 3.33333 0.68504V3.33333H5.98162Z" fill="var(--fill-0, #3A5166)"/>
<path d="M5.82933 4.66667C5.41758 5.83186 4.30651 6.66667 3 6.66667C1.34315 6.66667 0 5.32389 0 3.66667C0 2.36039 0.83465 1.24912 2 0.837322V1.54637C1.19041 1.93585 0.666667 2.7334 0.666667 3.66667C0.666667 4.94627 1.72049 6 3 6C3.93331 6 4.73083 5.47623 5.12029 4.66667H5.82933Z" fill="var(--fill-0, #3A5166)"/>
</g>
</svg>
