<svg preserveAspectRatio="none" width="100%" height="100%" overflow="visible" style="display: block;" viewBox="0 0 14 14" fill="none" xmlns="http://www.w3.org/2000/svg">
<path id="IconShape" d="M11.3042 13.2098H1.97115V11.8768H11.3042V13.2098ZM5.95064 0.475432C6.1887 -0.158526 7.08555 -0.158461 7.32369 0.475432L8.96627 4.85629L12.1333 2.74496C12.6769 2.38256 13.3874 2.85823 13.2592 3.49887L11.3042 10.5438H1.97115L0.0150933 3.49887C-0.113035 2.85823 0.597464 2.38256 1.14107 2.74496L4.30806 4.85629L5.95064 0.475432ZM5.29146 6.03207C5.12561 6.47433 4.59071 6.64661 4.19771 6.38461L1.60689 4.65805L2.97115 9.20981H10.3042L11.6684 4.65805L9.07662 6.38461C8.68363 6.64647 8.14967 6.47427 7.98384 6.03207L6.63716 2.44223L5.29146 6.03207Z" fill="var(--fill-0, #7975F2)"/>
</svg>
