<svg preserveAspectRatio="none" width="100%" height="100%" overflow="visible" style="display: block;" viewBox="0 0 16 16" fill="none" xmlns="http://www.w3.org/2000/svg">
<path id="Subtract" fill-rule="evenodd" clip-rule="evenodd" d="M4.37351 15.8516C5.23758 16.3213 6.17773 15.6056 6.17773 14.6221V14.6221C6.17773 14.0151 5.80043 13.4835 5.29166 13.1525C3.76128 12.1566 2.74609 10.4076 2.74609 8.41629C2.74609 5.31744 5.20456 2.80534 8.23723 2.80534C10.4095 2.80534 12.2872 4.09427 13.1778 5.96451C13.4601 6.55731 14.0156 7.0137 14.6722 7.0137V7.0137C15.5562 7.0137 16.2359 6.21318 15.9234 5.38619C14.7329 2.23521 11.7403 0 8.23671 0C3.6877 0 0 3.76816 0 8.41643C0 11.6381 1.77152 14.4371 4.37351 15.8516Z" fill="var(--fill-0, #B6BEC6)"/>
</svg>
