<svg preserveAspectRatio="none" width="100%" height="100%" overflow="visible" style="display: block;" viewBox="0 0 12 11" fill="none" xmlns="http://www.w3.org/2000/svg">
<path id="Vector" d="M12 10.1273H0V8.79328H12V10.1273ZM10.9326 0.0110553C11.2005 0.0463137 11.4496 0.168651 11.6406 0.359688C11.8317 0.550729 11.954 0.799834 11.9893 1.0677C12.0244 1.33538 11.9709 1.60729 11.8359 1.84113C11.7008 2.0751 11.4918 2.25827 11.2422 2.36164C10.9927 2.46493 10.7159 2.48328 10.4551 2.4134L8.4873 4.38117C8.53574 4.5629 8.54175 4.75339 8.50488 4.93781C8.46801 5.12208 8.38984 5.2956 8.27539 5.44465C8.16084 5.59374 8.01335 5.71502 7.84473 5.79816C7.67598 5.88131 7.48988 5.92414 7.30176 5.92414C7.11381 5.92413 6.92838 5.88118 6.75977 5.79816C6.59107 5.71504 6.4437 5.59377 6.3291 5.44465C6.21453 5.29553 6.13552 5.12221 6.09863 4.93781C6.06177 4.7534 6.06779 4.56289 6.11621 4.38117L5.0166 3.28059C4.8084 3.33612 4.58907 3.33608 4.38086 3.28059L2.41309 5.24836C2.48299 5.50916 2.46453 5.78598 2.36133 6.03547C2.25795 6.28508 2.07479 6.49412 1.84082 6.62922C1.60697 6.76421 1.3351 6.81868 1.06738 6.78352C0.79952 6.74826 0.550416 6.62495 0.359375 6.43391C0.168523 6.24298 0.0460543 5.99451 0.0107422 5.72688C-0.0245166 5.45901 0.0289658 5.18643 0.164062 4.95246C0.29915 4.71851 0.508221 4.53631 0.757812 4.43293C1.00742 4.32956 1.28397 4.31123 1.54492 4.38117L3.5127 2.4134C3.46403 2.23158 3.45836 2.04038 3.49512 1.85578C3.53186 1.67149 3.61026 1.49807 3.72461 1.34895C3.83908 1.19981 3.9867 1.07866 4.15527 0.99543C4.32402 0.912231 4.51011 0.868514 4.69824 0.868477C4.88646 0.868477 5.0724 0.912196 5.24121 0.99543C5.40995 1.07866 5.55731 1.19969 5.67188 1.34895C5.78634 1.49815 5.86559 1.67135 5.90234 1.85578C5.9391 2.04038 5.93245 2.23158 5.88379 2.4134L6.98438 3.51301C7.1923 3.45764 7.41121 3.45766 7.61914 3.51301L9.58691 1.54523C9.51704 1.28439 9.53538 1.00764 9.63867 0.758126C9.74205 0.508512 9.92521 0.299472 10.1592 0.164376C10.393 0.0294347 10.6649 -0.0241253 10.9326 0.0110553Z" fill="var(--fill-0, #B6BEC6)"/>
</svg>
