<svg preserveAspectRatio="none" width="100%" height="100%" overflow="visible" style="display: block;" viewBox="0 0 739 30" fill="none" xmlns="http://www.w3.org/2000/svg">
<path id="Graph" d="M1 24.667L9.65604 27.3735L17.5754 22.468L26.0473 23.8213L34.5191 23.3138L42.4385 20.6073L50.7262 18.2391L59.198 26.5278L67.3016 25.5128L75.5893 23.8213L83.877 21.1147H92.1647L100.268 17.2241L108.74 23.8213L117.028 19.0849L125.5 24.3287L133.603 21.1147H141.338H149.994L158.65 18.2391L166.57 27.5427L175.042 21.1147H183.145L191.433 26.3586L199.721 16.04L207.64 15.0251L216.296 16.04L224.215 17.2241L232.871 18.2391L241.343 15.5326L249.631 12.1494L257.734 19.9306L265.838 12.9952L273.941 12.1494L282.229 18.2391L291.069 5.72145L298.805 16.3783L307.276 11.6419L315.564 10.1195L323.852 14.0101L331.955 11.6419H340.427L348.531 14.0101L357.003 8.93544L365.29 14.8559L373.394 11.1345L381.682 9.27375L390.153 11.8111L398.257 12.3186L406.545 11.8111L414.832 7.58218L422.936 11.1345L431.224 6.90555L439.695 11.1345L447.799 6.90555L456.271 9.44291L464.558 6.56724L472.662 9.44291L480.95 7.41302L489.237 6.56724L497.525 2L505.813 17.9008L514.285 9.10459L522.572 9.44291H530.308L538.964 4.3682L547.251 20.269L555.539 10.627L563.827 8.76628L571.746 14.5176L580.402 11.3036L588.69 14.5176L596.793 11.8111L605.265 18.4082L613.369 11.8111L621.656 16.3783L629.944 13.3335L638.048 18.2391L646.704 15.8709L654.623 20.4381L662.911 17.5624L671.383 22.2988L679.486 21.1147L687.59 21.9605L696.061 22.9755L704.349 20.269L712.821 26.8661L720.925 22.6372L729.212 28.3885L737.5 27.7119" stroke="var(--stroke-0, #1EC794)" stroke-width="2" stroke-linecap="round"/>
</svg>
