<svg preserveAspectRatio="none" width="100%" height="100%" overflow="visible" style="display: block;" viewBox="0 0 20 20" fill="none" xmlns="http://www.w3.org/2000/svg">
<path id="IconShape" fill-rule="evenodd" clip-rule="evenodd" d="M10 0C4.48 0 0 4.48 0 10C0 15.52 4.48 20 10 20C15.52 20 20 15.52 20 10C20 4.48 15.52 0 10 0ZM9 17.93C5.05 17.44 2 14.08 2 10C2 9.38 2.08 8.79 2.21 8.21L7 13V14C7 15.1 7.9 16 9 16V17.93ZM14 14C14.9 14 15.64 14.58 15.9 15.39C17.2 13.97 18 12.08 18 10C18 6.65 15.93 3.78 13 2.59V3C13 4.1 12.1 5 11 5H9V7C9 7.55 8.55 8 8 8H6V10H12C12.55 10 13 10.45 13 11V14H14Z" fill="var(--fill-0, #B6BEC6)"/>
</svg>
