<svg preserveAspectRatio="none" width="100%" height="100%" overflow="visible" style="display: block;" viewBox="0 0 10 12" fill="none" xmlns="http://www.w3.org/2000/svg">
<path id="IconShape" fill-rule="evenodd" clip-rule="evenodd" d="M2.66667 4H6.66667V2.97436C6.66667 2.08618 5.79999 1.33333 4.66667 1.33333C3.53335 1.33333 2.66667 2.08618 2.66667 2.97436V4ZM8 4.1138V2.97436C8 1.3048 6.49791 0 4.66667 0C2.83542 0 1.33333 1.3048 1.33333 2.97436V4.1138C0.556538 4.38836 0 5.12919 0 6V10C0 11.1046 0.895431 12 2 12H7.33333C8.4379 12 9.33333 11.1046 9.33333 10V6C9.33333 5.12919 8.7768 4.38836 8 4.1138ZM2 5.33333C1.63181 5.33333 1.33333 5.63181 1.33333 6V10C1.33333 10.3682 1.63181 10.6667 2 10.6667H7.33333C7.70152 10.6667 8 10.3682 8 10V6C8 5.63181 7.70152 5.33333 7.33333 5.33333H2Z" fill="var(--fill-0, #7975F2)"/>
</svg>
