<svg preserveAspectRatio="none" width="100%" height="100%" overflow="visible" style="display: block;" viewBox="0 0 14 14" fill="none" xmlns="http://www.w3.org/2000/svg">
<path id="IconShape" d="M11.3042 13.21H1.97116V11.877H11.3042V13.21ZM5.95066 0.475603C6.18863 -0.158562 7.08561 -0.158456 7.3237 0.475603L8.96628 4.85646L12.1333 2.74513C12.6769 2.38273 13.3874 2.8584 13.2592 3.49904L11.3042 10.544H1.97116L0.0151094 3.49904C-0.113019 2.8584 0.59748 2.38273 1.14109 2.74513L4.30808 4.85646L5.95066 0.475603ZM5.29148 6.03224C5.12563 6.4745 4.59073 6.64678 4.19773 6.38478L1.60691 4.65724L2.97116 9.20998H10.3042L11.6684 4.65724L9.07761 6.38478C8.68462 6.64677 8.14973 6.47445 7.98386 6.03224L6.63718 2.4424L5.29148 6.03224Z" fill="var(--fill-0, #EFEFFF)"/>
</svg>
