<svg preserveAspectRatio="none" width="100%" height="100%" overflow="visible" style="display: block;" viewBox="0 0 1257 82" fill="none" xmlns="http://www.w3.org/2000/svg">
<path id="Graph" d="M1 69L15.7441 77L29.2333 62.5L43.6637 66.5L58.094 65L71.5833 57L85.6999 50L100.13 74.5L113.933 71.5L128.05 66.5L142.167 58.5H156.283L170.086 47L184.516 66.5L198.633 52.5L213.064 68L226.866 58.5H240.042H254.786L269.53 50L283.019 77.5L297.45 58.5H311.253L325.369 74L339.486 43.5L352.975 40.5L367.719 43.5L381.209 47L395.953 50L410.383 42L424.5 32L438.303 55L452.106 34.5L465.908 32L480.025 50L495.083 13L508.258 44.5L522.689 30.5L536.805 26L550.922 37.5L564.725 30.5H579.155L592.958 37.5L607.389 22.5L621.505 40L635.308 29L649.425 23.5L663.855 31L677.658 32.5L691.775 31L705.892 18.5L719.695 29L733.811 16.5L748.242 29L762.044 16.5L776.475 24L790.592 15.5L804.394 24L818.511 18L832.628 15.5L846.744 2L860.861 49L875.291 23L889.408 24H902.584L917.328 9L931.444 56L945.561 27.5L959.678 22L973.167 39L987.911 29.5L1002.03 39L1015.83 31L1030.26 50.5L1044.06 31L1058.18 44.5L1072.3 35.5L1086.1 50L1100.84 43L1114.33 56.5L1128.45 48L1142.88 62L1156.68 58.5L1170.49 61L1184.92 64L1199.03 56L1213.46 75.5L1227.27 63L1241.38 80L1255.5 78" stroke="var(--stroke-0, #1EC794)" stroke-width="2" stroke-linecap="round"/>
</svg>
