<svg preserveAspectRatio="none" width="100%" height="100%" overflow="visible" style="display: block;" viewBox="0 0 11 14" fill="none" xmlns="http://www.w3.org/2000/svg">
<path id="IconShape" fill-rule="evenodd" clip-rule="evenodd" d="M3 4.5H7.5V3.34615C7.5 2.34695 6.52499 1.5 5.25 1.5C3.97501 1.5 3 2.34695 3 3.34615V4.5ZM9 4.62803V3.34615C9 1.4679 7.31015 0 5.25 0C3.18985 0 1.5 1.4679 1.5 3.34615V4.62803C0.626106 4.93691 0 5.77034 0 6.75V11.25C0 12.4926 1.00736 13.5 2.25 13.5H8.25C9.49264 13.5 10.5 12.4926 10.5 11.25V6.75C10.5 5.77034 9.87389 4.93691 9 4.62803ZM2.25 6C1.83579 6 1.5 6.33579 1.5 6.75V11.25C1.5 11.6642 1.83579 12 2.25 12H8.25C8.66421 12 9 11.6642 9 11.25V6.75C9 6.33579 8.66421 6 8.25 6H2.25Z" fill="var(--fill-0, #092540)"/>
</svg>
