<svg preserveAspectRatio="none" width="100%" height="100%" overflow="visible" style="display: block;" viewBox="0 0 6 6" fill="none" xmlns="http://www.w3.org/2000/svg">
<path id="IconShape" fill-rule="evenodd" clip-rule="evenodd" d="M0.0866935 5.5103C0.264905 5.81968 0.65883 5.92524 0.96655 5.74607L4.86389 3.4768C4.96119 3.42014 5.04204 3.33886 5.09839 3.24103C5.2766 2.93165 5.17161 2.5356 4.86389 2.35643L0.96655 0.0871613C0.868492 0.0300661 0.757184 0 0.643869 0C0.28827 0 0 0.289825 0 0.647343V5.18588C0 5.29981 0.0299048 5.41172 0.0866935 5.5103ZM4.54121 2.91661L3.58469 3.47356L3.03076 2.91665L3.58473 2.35969L4.54121 2.91661ZM3.0081 2.02394L0.952207 0.826877L2.57548 2.4589L3.0081 2.02394ZM2.12019 2.91665L0.643869 1.43236V4.40093L2.12019 2.91665ZM0.952359 5.00626L3.00806 3.80931L2.57548 3.37439L0.952359 5.00626Z" fill="var(--fill-0, #092540)"/>
</svg>
