<svg preserveAspectRatio="none" width="100%" height="100%" overflow="visible" style="display: block;" viewBox="0 0 7 8" fill="none" xmlns="http://www.w3.org/2000/svg">
<path id="IconShape" fill-rule="evenodd" clip-rule="evenodd" d="M0.111463 7.08468C0.340592 7.48245 0.847067 7.61816 1.24271 7.3878L6.25357 4.47017C6.37867 4.39733 6.48262 4.29282 6.55507 4.16704C6.7842 3.76927 6.64921 3.26006 6.25357 3.0297L1.24271 0.112064C1.11663 0.0386564 0.973522 0 0.827832 0C0.370633 0 0 0.372633 0 0.832298V6.66756C0 6.81404 0.038449 6.95792 0.111463 7.08468ZM5.8387 3.74993L4.60888 4.46601L3.89669 3.74997L4.60893 3.03389L5.8387 3.74993ZM3.86756 2.60221L1.22427 1.06313L3.31133 3.16145L3.86756 2.60221ZM2.72596 3.74997L0.827832 1.8416V5.65834L2.72596 3.74997ZM1.22446 6.43662L3.86751 4.89768L3.31133 4.3385L1.22446 6.43662Z" fill="var(--fill-0, #092540)"/>
</svg>
