<svg preserveAspectRatio="none" width="100%" height="100%" overflow="visible" style="display: block;" viewBox="0 0 738 51" fill="none" xmlns="http://www.w3.org/2000/svg">
<path id="Graph" d="M1 2L9.28414 5.21398L17.5683 2L25.8524 3.69157L33.9525 6.7364L42.4207 7.24387L50.8889 5.21398L58.8049 6.05977L67.089 8.93544L75.3732 6.05977L83.6573 9.61207L91.9415 12.1494L100.226 14.5176L108.326 7.07471L116.794 2.67663H124.894L133.362 7.07471L141.646 12.1494L149.746 14.5176L158.031 10.9653L166.499 9.61207H174.415L182.883 12.1494H191.167L199.635 15.7017H207.735L216.02 15.1942H224.304L232.588 17.2241L240.872 20.6073L249.156 23.9904L257.256 23.1446L265.54 23.9904L273.824 25.8511L282.293 30.2492L290.577 27.5427L298.677 26.6969L307.145 27.5427L315.245 33.8015L323.529 38.5379L331.997 38.0304L339.913 39.722L348.382 43.6126L356.666 42.0902L364.766 43.6126L373.234 49.0256L381.518 35.6622L389.802 44.6276L398.087 40.5678L406.187 39.0454L414.287 43.6126L422.755 33.9707L430.855 37.523L439.323 29.9109L447.607 36.6772L455.891 29.9109L464.176 28.0502L472.276 23.8213L480.56 28.0502L489.028 22.6372H497.128L505.412 25.1745L513.88 28.0502L521.98 23.8213L530.081 20.9456L538.549 15.1942L546.649 9.27375L554.933 20.269L563.217 9.27375L571.685 25.1745L580.154 15.7017L588.07 13.841L596.17 19.0849L604.638 22.8063H612.922L621.206 17.2241H629.49L637.774 19.0849L646.059 21.2839L654.343 19.0849H662.443L670.727 17.2241L679.195 20.269L687.295 22.8063L695.579 25.5128L703.863 25.0054L712.148 20.269H720.248L728.716 22.8063L737 37.523" stroke="var(--stroke-0, #0FBFE5)" stroke-width="2" stroke-linecap="round"/>
</svg>
