<svg preserveAspectRatio="none" width="100%" height="100%" overflow="visible" style="display: block;" viewBox="0 0 23 18" fill="none" xmlns="http://www.w3.org/2000/svg">
<path id="IconShape" d="M4.24316 6.53516C6.19582 4.58299 9.36198 4.58269 11.3145 6.53516C13.2667 8.48764 13.2666 11.6538 11.3145 13.6064C9.60386 15.317 6.96199 15.5288 5.02051 14.2422L1.41406 17.8496L0 16.4346L3.60645 12.8271C2.3211 10.8858 2.53305 8.24527 4.24316 6.53516ZM22.1719 17H14.1719V15H22.1719V17ZM9.89941 7.9502C8.72784 6.77863 6.8288 6.77862 5.65723 7.9502C4.48569 9.12177 4.48567 11.0208 5.65723 12.1924C6.8288 13.3638 8.7279 13.3639 9.89941 12.1924C11.0709 11.0209 11.0708 9.12178 9.89941 7.9502ZM22.1719 12H16.1719V10H22.1719V12ZM22.1719 7H14.1719V5H22.1719V7ZM22 2H2V0H22V2Z" fill="var(--fill-0, #B6BEC6)"/>
</svg>
