<svg preserveAspectRatio="none" width="100%" height="100%" overflow="visible" style="display: block;" viewBox="0 0 9 9" fill="none" xmlns="http://www.w3.org/2000/svg">
<path id="Shape" fill-rule="evenodd" clip-rule="evenodd" d="M0 4.375C0 1.96 1.96 0 4.375 0C6.79 0 8.75 1.96 8.75 4.375C8.75 6.79 6.79 8.75 4.375 8.75C1.96 8.75 0 6.79 0 4.375ZM4.8125 3.9375V6.5625H3.9375V3.9375H4.8125ZM4.375 7.875C2.44563 7.875 0.875 6.30437 0.875 4.375C0.875 2.44563 2.44563 0.875 4.375 0.875C6.30437 0.875 7.875 2.44563 7.875 4.375C7.875 6.30437 6.30437 7.875 4.375 7.875ZM4.8125 2.1875V3.0625H3.9375V2.1875H4.8125Z" fill="var(--fill-0, black)"/>
</svg>
