<svg preserveAspectRatio="none" width="100%" height="100%" overflow="visible" style="display: block;" viewBox="0 0 1256 142" fill="none" xmlns="http://www.w3.org/2000/svg">
<path id="Graph" d="M1 1L15.1146 3L29.2291 10L43.3437 16L57.4582 17L71.2591 20L85.6873 29.5L99.4882 30L113.603 34L128.031 43.5H141.832L155.946 52.5L170.061 51L184.176 57.5L198.29 59.5L212.091 61L226.519 62.5L240.634 68H254.435L268.549 73.5H282.664L297.092 79L310.893 79.5L325.008 79L339.122 72.5L353.237 70.5L367.351 64L381.466 62L395.58 55.5L409.695 53L423.809 46.5L437.61 44.5L452.039 38L465.839 35.5L479.954 31H494.069L508.183 27.5H522.298L536.412 23.5H550.527L564.641 19.5L578.442 20L592.87 16H606.671L621.1 11.5L634.9 15.5L649.329 17.5L663.13 24.5L677.244 26L691.359 32.5L705.473 35L719.588 41.5L733.702 43L747.817 50.5L761.618 52L776.046 58.5H790.161L804.275 62L818.076 59.5L832.191 61.5L846.305 59.5L860.42 62.5L874.848 60L888.649 62.5L902.763 60L916.564 63.5L930.992 61L945.107 65H959.222L973.336 71.5L987.137 72L1001.57 78L1015.68 79L1029.48 85L1043.28 85.5L1058.02 93H1071.82L1085.94 99.5H1100.05L1114.17 106.5H1128.28L1142.4 113L1156.51 115L1170.63 120L1184.43 122L1198.54 127L1212.66 129L1226.77 134.5L1240.89 135.5L1255 141" stroke="var(--stroke-0, #435993)" stroke-width="2" stroke-linecap="round"/>
</svg>
