<svg preserveAspectRatio="none" width="100%" height="100%" overflow="visible" style="display: block;" viewBox="0 0 105 105" fill="none" xmlns="http://www.w3.org/2000/svg">
<g id="Frame 2193">
<path id="Ellipse 2" d="M3.18845 34.4827C0.22982 42.5803 -0.689181 51.2818 0.512624 59.8187C1.71443 68.3556 5.00005 76.4651 10.0793 83.4311L27.0361 71.067C23.9872 66.8855 22.015 62.0176 21.2936 56.8932C20.5722 51.7687 21.1238 46.5455 22.8998 41.6848L3.18845 34.4827Z" fill="var(--fill-0, #3E74FE)"/>
<path id="Ellipse 7" d="M51.5838 0.0079959C41.1411 0.190271 30.9902 3.48306 22.429 9.46529C13.8678 15.4475 7.28546 23.8473 3.52366 33.5905L23.101 41.1492C25.3591 35.3007 29.3103 30.2585 34.4493 26.6676C39.5883 23.0766 45.6816 21.1001 51.95 20.9906L51.5838 0.0079959Z" fill="var(--fill-0, #B6BEC6)"/>
<path id="Ellipse 3" d="M10.5716 84.0953C14.7208 89.6014 19.9138 94.2364 25.8542 97.7355C31.7947 101.235 38.3661 103.53 45.1934 104.489C52.0207 105.449 58.9702 105.054 65.645 103.328C72.3198 101.602 78.5892 98.5775 84.0953 94.4284L71.4657 77.6683C68.1605 80.1589 64.3972 81.9742 60.3905 83.0104C56.3838 84.0465 52.2123 84.2834 48.1141 83.7075C44.0159 83.1315 40.0712 81.754 36.5054 79.6535C32.9395 77.5531 29.8223 74.7708 27.3317 71.4657L10.5716 84.0953Z" fill="var(--fill-0, #435993)"/>
<path id="Ellipse 4" d="M84.8222 93.8706C93.5588 87.0448 99.9103 77.6284 102.966 66.971C106.022 56.3135 105.626 44.9622 101.834 34.5439L82.1136 41.7215C84.3898 47.9753 84.6278 54.7891 82.7933 61.1865C80.9589 67.5838 77.1464 73.2362 71.902 77.3335L84.8222 93.8706Z" fill="var(--fill-0, #FF7A1A)"/>
<path id="Ellipse 5" d="M101.513 33.6857C97.5398 23.3352 90.3918 14.5082 81.0936 8.4698L69.6638 26.07C75.2453 29.6947 79.536 34.9932 81.921 41.2063L101.513 33.6857Z" fill="var(--fill-0, #00CA9A)"/>
<path id="Ellipse 6" d="M80.3208 7.97748C71.8721 2.69817 62.0957 -0.0682671 52.1335 0.00127923L52.28 20.9866C58.26 20.9449 64.1285 22.6055 69.2 25.7745L80.3208 7.97748Z" fill="var(--fill-0, #FFB800)"/>
</g>
</svg>
