<svg preserveAspectRatio="none" width="100%" height="100%" overflow="visible" style="display: block;" viewBox="0 0 15 15" fill="none" xmlns="http://www.w3.org/2000/svg">
<path id="IconShape" fill-rule="evenodd" clip-rule="evenodd" d="M12 5.33333L12.8333 3.5L14.6667 2.66667L12.8333 1.83333L12 0L11.1667 1.83333L9.33333 2.66667L11.1667 3.5L12 5.33333ZM12 9.33333L11.1667 11.1667L9.33333 12L11.1667 12.8333L12 14.6667L12.8333 12.8333L14.6667 12L12.8333 11.1667L12 9.33333ZM5.33333 2L7 5.66667L10.6667 7.33333L7 9L5.33333 12.6667L3.66667 9L0 7.33333L3.66667 5.66667L5.33333 2ZM5.33333 9.44667L5.99333 7.99333L7.44667 7.33333L5.99333 6.67333L5.33333 5.22L4.67333 6.67333L3.22 7.33333L4.67333 7.99333L5.33333 9.44667Z" fill="var(--fill-0, #092540)"/>
</svg>
