<svg preserveAspectRatio="none" width="100%" height="100%" overflow="visible" style="display: block;" viewBox="0 0 20 18" fill="none" xmlns="http://www.w3.org/2000/svg">
<path id="IconShape" fill-rule="evenodd" clip-rule="evenodd" d="M3.41421 10.4853C3.93767 9.96182 4.11031 9.22039 3.93212 8.55316L7.13894 5.34634C7.47784 5.43684 7.83587 5.43684 8.17476 5.34634L9.96737 7.13894C9.78919 7.80618 9.96182 8.54761 10.4853 9.07107C11.2663 9.85212 12.5327 9.85212 13.3137 9.07107C13.8372 8.54761 14.0098 7.80618 13.8316 7.13894L17.0384 3.93212C17.7057 4.11031 18.4471 3.93767 18.9706 3.41421C19.7516 2.63317 19.7516 1.36684 18.9706 0.585786C18.1895 -0.195262 16.9232 -0.195262 16.1421 0.585786C15.6187 1.10925 15.446 1.85068 15.6242 2.51791L12.4174 5.72473C12.0785 5.63423 11.7205 5.63423 11.3816 5.72473L9.58898 3.93212C9.76716 3.26489 9.59453 2.52346 9.07107 2C8.29002 1.21895 7.02369 1.21895 6.24264 2C5.71918 2.52346 5.54655 3.26489 5.72473 3.93212L2.51791 7.13894C1.85068 6.96076 1.10925 7.1334 0.585786 7.65685C-0.195262 8.4379 -0.195262 9.70423 0.585786 10.4853C1.36684 11.2663 2.63317 11.2663 3.41421 10.4853ZM20 16H0V18H20V16Z" fill="var(--fill-0, #B6BEC6)"/>
</svg>
