<svg preserveAspectRatio="none" width="100%" height="100%" overflow="visible" style="display: block;" viewBox="0 0 16 16" fill="none" xmlns="http://www.w3.org/2000/svg">
<path id="Subtract" fill-rule="evenodd" clip-rule="evenodd" d="M4.37506 15.8493C5.23897 16.3186 6.17874 15.603 6.17874 14.6199V14.6199C6.17874 14.0129 5.8014 13.4814 5.29259 13.1505C3.76175 12.1549 2.74621 10.406 2.74621 8.41484C2.74621 5.31657 5.20492 2.80493 8.23789 2.80493C10.4103 2.80493 12.2881 4.09348 13.1788 5.96321C13.4612 6.55603 14.0168 7.01245 14.6734 7.01245V7.01245C15.5577 7.01245 16.2374 6.21175 15.9248 5.38465C14.734 2.23454 11.7412 0 8.23751 0C3.68806 0 0 3.76746 0 8.41486C0 11.6364 1.77221 14.4352 4.37506 15.8493Z" fill="var(--fill-0, #CBD1D7)"/>
</svg>
