<svg preserveAspectRatio="none" width="100%" height="100%" overflow="visible" style="display: block;" viewBox="0 0 8 13" fill="none" xmlns="http://www.w3.org/2000/svg">
<g id="Group 2">
<path id="Shape 3" fill-rule="evenodd" clip-rule="evenodd" d="M0 0.684211C0 0.306526 0.298667 0 0.666667 0H7.33333C7.70133 0 8 0.306526 8 0.684211V4.10526C8 4.28111 7.934 4.45079 7.81533 4.57805L5.82533 6.71553C6.73333 7.32653 7.33333 8.38089 7.33333 9.57895C7.33333 11.4681 5.84067 13 4 13C2.15933 13 0.666667 11.4681 0.666667 9.57895C0.666667 8.38089 1.26667 7.32653 2.17467 6.71553L0.184667 4.57805C0.066 4.45079 0 4.28111 0 4.10526V0.684211ZM1.33333 1.36842V4.04437L2.952 5.56947H3.33333V1.36842H1.33333ZM6.66667 4.04437L5.048 5.56947H4.66667V1.36842H6.66667V4.04437ZM4 11.6316C5.10467 11.6316 6 10.7127 6 9.57895C6 8.44521 5.10467 7.52632 4 7.52632C2.89533 7.52632 2 8.44521 2 9.57895C2 10.7127 2.89533 11.6316 4 11.6316Z" fill="var(--fill-0, #AAB2BA)"/>
<mask id="mask0_486_92481" style="mask-type:luminance" maskUnits="userSpaceOnUse" x="0" y="0" width="8" height="13">
<path id="Shape 3_2" fill-rule="evenodd" clip-rule="evenodd" d="M0 0.684211C0 0.306526 0.298667 0 0.666667 0H7.33333C7.70133 0 8 0.306526 8 0.684211V4.10526C8 4.28111 7.934 4.45079 7.81533 4.57805L5.82533 6.71553C6.73333 7.32653 7.33333 8.38089 7.33333 9.57895C7.33333 11.4681 5.84067 13 4 13C2.15933 13 0.666667 11.4681 0.666667 9.57895C0.666667 8.38089 1.26667 7.32653 2.17467 6.71553L0.184667 4.57805C0.066 4.45079 0 4.28111 0 4.10526V0.684211ZM1.33333 1.36842V4.04437L2.952 5.56947H3.33333V1.36842H1.33333ZM6.66667 4.04437L5.048 5.56947H4.66667V1.36842H6.66667V4.04437ZM4 11.6316C5.10467 11.6316 6 10.7127 6 9.57895C6 8.44521 5.10467 7.52632 4 7.52632C2.89533 7.52632 2 8.44521 2 9.57895C2 10.7127 2.89533 11.6316 4 11.6316Z" fill="var(--fill-0, white)"/>
</mask>
<g mask="url(#mask0_486_92481)">
</g>
</g>
</svg>
