<svg preserveAspectRatio="none" width="100%" height="100%" overflow="visible" style="display: block;" viewBox="0 0 20 19" fill="none" xmlns="http://www.w3.org/2000/svg">
<path id="IconShape" fill-rule="evenodd" clip-rule="evenodd" d="M19.873 16.5394L10.8725 0.510566C10.7825 0.350434 10.6503 0.218155 10.4901 0.128238C10.0086 -0.142168 9.39899 0.0290065 9.12858 0.510566L0.12806 16.5394C0.0440988 16.6889 0 16.8575 0 17.029C0 17.5813 0.447715 18.029 1 18.029H19.001C19.1725 18.029 19.3411 17.9849 19.4907 17.901C19.9722 17.6306 20.1434 17.021 19.873 16.5394ZM2.70839 16.029L10.0005 3.04261L17.2927 16.029H2.70839ZM9.00062 7.02902H11.0006V11.029H9.00062V7.02902ZM11.0006 12.029H9.00062V14.029H11.0006V12.029Z" fill="var(--fill-0, #B6BEC6)"/>
</svg>
