<svg preserveAspectRatio="none" width="100%" height="100%" overflow="visible" style="display: block;" viewBox="0 0 19 19" fill="none" xmlns="http://www.w3.org/2000/svg">
<path id="Subtract" fill-rule="evenodd" clip-rule="evenodd" d="M17.0933 8C18.1262 8 18.9189 7.06222 18.5422 6.10042C17.1435 2.52912 13.6671 0 9.6 0C4.29807 0 0 4.29807 0 9.6C0 13.2933 2.08563 16.4995 5.14337 18.1051C6.13393 18.6252 7.2 17.8077 7.2 16.6889V16.6889C7.2 15.9913 6.76406 15.3813 6.17512 15.0075C4.38685 13.8725 3.2 11.8748 3.2 9.6C3.2 6.06538 6.06538 3.2 9.6 3.2C12.1255 3.2 14.3093 4.66278 15.3504 6.7873C15.6858 7.47171 16.3311 8 17.0933 8V8Z" fill="var(--fill-0, #CBD1D7)"/>
</svg>
