<svg preserveAspectRatio="none" width="100%" height="100%" overflow="visible" style="display: block;" viewBox="0 0 14 11" fill="none" xmlns="http://www.w3.org/2000/svg">
<path id="IconShape" fill-rule="evenodd" clip-rule="evenodd" d="M0 0H13.3333V10.6667H0V0ZM1.33333 1.33333V8.12826L3.02369 6.4379L3.49509 5.9665L3.9665 5.49509L4.90931 6.4379L7.73773 3.60948L8.20914 4.08088L8.68054 4.55228L12 7.87174V1.33333H1.33333ZM11.576 9.33333H2.01388L3.9665 7.38071L4.90931 8.32352L5.85212 7.38071L7.73773 5.49509L11.576 9.33333ZM3.33333 4.66667C4.06971 4.66667 4.66667 4.06971 4.66667 3.33333C4.66667 2.59695 4.06971 2 3.33333 2C2.59695 2 2 2.59695 2 3.33333C2 4.06971 2.59695 4.66667 3.33333 4.66667Z" fill="var(--fill-0, white)"/>
</svg>
