<svg preserveAspectRatio="none" width="100%" height="100%" overflow="visible" style="display: block;" viewBox="0 0 20 16" fill="none" xmlns="http://www.w3.org/2000/svg">
<path id="IconShape" fill-rule="evenodd" clip-rule="evenodd" d="M0 0H20V16H0V0ZM2 2V12.1924L4.53553 9.65685L5.24264 8.94975L5.94975 8.24264L7.36396 9.65685L11.6066 5.41421L12.3137 6.12132L13.0208 6.82843L18 11.8076V2H2ZM17.364 14H3.02082L5.94975 11.0711L7.36396 12.4853L8.77817 11.0711L11.6066 8.24264L17.364 14ZM5 7C6.10457 7 7 6.10457 7 5C7 3.89543 6.10457 3 5 3C3.89543 3 3 3.89543 3 5C3 6.10457 3.89543 7 5 7Z" fill="var(--fill-0, #B6BEC6)"/>
</svg>
